<svg width="1013.58" height="769.76" xmlns="http://www.w3.org/2000/svg">
 <title>buffer</title>

 <g>
  <title>background</title>
  <rect fill="none" id="canvas_background" height="402" width="582" y="-1" x="-1"/>
 </g>
 <g>
  <title>Layer 1</title>
  <path id="svg_1" opacity="0.1" fill="#1bb1dc" d="m935.220001,718.219997l-103.72,-179.65a3.3,3.3 0 0 0 -5.73,0l-103.72,179.65a3.3,3.3 0 0 0 2.86,5l30.94,0a3.32,3.32 0 0 1 3.31,3.31l0,38.35a3.31,3.31 0 0 0 3.3,3.31l40.33,0a3.31,3.31 0 0 0 3.31,-3.31l0,-18.54a3.3,3.3 0 0 1 3.3,-3.3l38.39,0a3.31,3.31 0 0 1 3.31,3.3l0,18.54a3.31,3.31 0 0 0 3.31,3.31l40.38,0a3.31,3.31 0 0 0 3.31,-3.31l0,-38.39a3.31,3.31 0 0 1 3.31,-3.31l30.94,0a3.31,3.31 0 0 0 2.87,-4.96zm-144.61,19.88a3.3,3.3 0 0 1 -2.34,1l-14.56,0a3.31,3.31 0 0 1 0,-6.62l14.56,0a3.31,3.31 0 0 1 2.34,5.65l0,-0.03zm95.28,0.03a3.3,3.3 0 0 1 -2.34,1l-14.55,0a3.31,3.31 0 0 1 0,-6.62l14.55,0a3.31,3.31 0 0 1 2.34,5.65l0,-0.03z"/>
  <path id="svg_2" opacity="0.1" fill="#1bb1dc" d="m294.130001,719.799997l-103.72,-179.65a3.31,3.31 0 0 0 -5.73,0l-89.59,155.17a273.67,273.67 0 0 0 37.53,38.71l14.56,0a3.31,3.31 0 0 1 0,6.62l-6.16,0a160.29,160.29 0 0 0 24,14.93l0,-7.65a3.31,3.31 0 0 1 3.31,-3.31l38.46,0a3.31,3.31 0 0 1 3.3,3.31l0,18.52a3.22,3.22 0 0 0 0.31,1.39a3.31,3.31 0 0 0 3,1.92l40.37,0a3.24,3.24 0 0 0 2.63,-1.33a3.18,3.18 0 0 0 0.67,-2l0,-38.35a3.31,3.31 0 0 1 3.31,-3.31l30.94,0a3.31,3.31 0 0 0 2.81,-4.97zm-68.56,15.2a3.3,3.3 0 0 1 2.34,-1l14.56,0a3.31,3.31 0 0 1 0,6.62l-14.56,0a3.31,3.31 0 0 1 -2.34,-5.65l0,0.03zm-65.15,-66.48a3.31,3.31 0 0 1 -3.31,-3.31l0,-25.14a3.31,3.31 0 0 1 3.31,-3.31l54.26,0a3.31,3.31 0 0 1 3.3,3.31l0,25.14a3.31,3.31 0 0 1 -3.3,3.31l-54.26,0z"/>
  <path id="svg_3" opacity="0.1" fill="#1bb1dc" d="m704.110001,397.079997l-128.32,0l0,-27.76a6.64,6.64 0 0 0 -6.64,-6.64l-37.72,0l0,-29.57a4.18,4.18 0 0 0 -4.18,-4.18l-48.55,0a4.18,4.18 0 0 0 -4.18,4.18l0,29.57l-44.31,0a6.64,6.64 0 0 0 -6.64,6.64l0,27.76l-122.39,0a1.35,1.35 0 0 0 -1.34,1.35l0,368.52a1.35,1.35 0 0 0 1.34,1.35l81.34,0a1.35,1.35 0 0 0 1.35,-1.35l0,-49.58a1.36,1.36 0 0 1 1.35,-1.35l34.36,0a1.36,1.36 0 0 1 1.35,1.35l0,49.58a1.35,1.35 0 0 0 1.34,1.35l160.75,0a1.36,1.36 0 0 0 1.35,-1.35l0,-49.58a1.35,1.35 0 0 1 1.34,-1.35l34.36,0a1.35,1.35 0 0 1 1.35,1.35l0,49.58a1.36,1.36 0 0 0 1.35,1.35l81.34,0a1.36,1.36 0 0 0 1.35,-1.35l0,-368.52a1.36,1.36 0 0 0 -1.35,-1.35zm-334.8,301.72a1.34,1.34 0 0 1 -1.34,1.34l-50.24,0a1.34,1.34 0 0 1 -1.35,-1.34l0,-17.16a1.35,1.35 0 0 1 1.35,-1.35l50.24,0a1.35,1.35 0 0 1 1.34,1.35l0,17.16zm0,-61.5a1.34,1.34 0 0 1 -1.34,1.35l-50.24,0a1.34,1.34 0 0 1 -1.35,-1.35l0,0.01a1.34,1.34 0 0 1 1.35,-1.35l50.24,0a1.34,1.34 0 0 1 1.34,1.35l0,-0.01zm0,-44.33a1.35,1.35 0 0 1 -1.34,1.35l-50.24,0a1.35,1.35 0 0 1 -1.35,-1.35l0,0a1.35,1.35 0 0 1 1.35,-1.35l50.24,0a1.35,1.35 0 0 1 1.34,1.35zm0,-44.34a1.34,1.34 0 0 1 -1.34,1.35l-50.24,0a1.34,1.34 0 0 1 -1.35,-1.35l0,0.01a1.34,1.34 0 0 1 1.35,-1.35l50.24,0a1.34,1.34 0 0 1 1.34,1.35l0,-0.01zm0,-44.33a1.35,1.35 0 0 1 -1.34,1.35l-50.24,0a1.35,1.35 0 0 1 -1.35,-1.35l0,0a1.34,1.34 0 0 1 1.35,-1.34l50.24,0a1.34,1.34 0 0 1 1.34,1.34zm0,-44.33a1.34,1.34 0 0 1 -1.34,1.34l-50.24,0a1.34,1.34 0 0 1 -1.35,-1.34l0,0a1.35,1.35 0 0 1 1.35,-1.35l50.24,0a1.35,1.35 0 0 1 1.34,1.35zm0,-44.34a1.34,1.34 0 0 1 -1.34,1.35l-50.24,0a1.34,1.34 0 0 1 -1.35,-1.35l0,0.01a1.34,1.34 0 0 1 1.35,-1.35l50.24,0a1.34,1.34 0 0 1 1.34,1.35l0,-0.01zm119.11,266a1.34,1.34 0 0 1 -1.35,1.34l-50.28,0a1.35,1.35 0 0 1 -1.35,-1.34l0,0.01a1.36,1.36 0 0 1 1.35,-1.35l50.24,0a1.35,1.35 0 0 1 1.35,1.35l0.04,-0.01zm0,-44.34a1.34,1.34 0 0 1 -1.35,1.35l-50.28,0a1.35,1.35 0 0 1 -1.35,-1.35l0,0.02a1.35,1.35 0 0 1 1.35,-1.35l50.24,0a1.34,1.34 0 0 1 1.35,1.35l0.04,-0.02zm0,-44.33a1.35,1.35 0 0 1 -1.35,1.35l-50.28,0a1.36,1.36 0 0 1 -1.35,-1.35l0,0.01a1.36,1.36 0 0 1 1.35,-1.35l50.24,0a1.35,1.35 0 0 1 1.35,1.35l0.04,-0.01zm0,-44.34a1.34,1.34 0 0 1 -1.35,1.35l-50.28,0a1.35,1.35 0 0 1 -1.35,-1.35l0,0.02a1.35,1.35 0 0 1 1.35,-1.35l50.24,0a1.34,1.34 0 0 1 1.35,1.35l0.04,-0.02zm0,-44.33a1.35,1.35 0 0 1 -1.35,1.35l-50.28,0a1.36,1.36 0 0 1 -1.35,-1.35l0,0.01a1.35,1.35 0 0 1 1.35,-1.34l50.24,0a1.34,1.34 0 0 1 1.35,1.34l0.04,-0.01zm0,-44.33a1.34,1.34 0 0 1 -1.35,1.34l-50.28,0a1.35,1.35 0 0 1 -1.35,-1.34l0,0.01a1.36,1.36 0 0 1 1.35,-1.35l50.24,0a1.35,1.35 0 0 1 1.35,1.35l0.04,-0.01zm0,-44.34a1.34,1.34 0 0 1 -1.35,1.35l-50.28,0a1.35,1.35 0 0 1 -1.35,-1.35l0,0.02a1.35,1.35 0 0 1 1.35,-1.35l50.24,0a1.34,1.34 0 0 1 1.35,1.35l0.04,-0.02zm81.39,266a1.34,1.34 0 0 1 -1.35,1.34l-50.24,0a1.35,1.35 0 0 1 -1.35,-1.34l0,0.02a1.36,1.36 0 0 1 1.35,-1.35l50.24,0a1.35,1.35 0 0 1 1.35,1.35l0,-0.02zm0,-44.34a1.34,1.34 0 0 1 -1.35,1.35l-50.24,0a1.35,1.35 0 0 1 -1.35,-1.35l0,0.03a1.35,1.35 0 0 1 1.35,-1.35l50.24,0a1.34,1.34 0 0 1 1.35,1.35l0,-0.03zm0,-44.33a1.35,1.35 0 0 1 -1.35,1.35l-50.24,0a1.36,1.36 0 0 1 -1.35,-1.35l0,0.02a1.36,1.36 0 0 1 1.35,-1.35l50.24,0a1.35,1.35 0 0 1 1.35,1.35l0,-0.02zm0,-44.34a1.34,1.34 0 0 1 -1.35,1.35l-50.24,0a1.35,1.35 0 0 1 -1.35,-1.35l0,0.03a1.35,1.35 0 0 1 1.35,-1.35l50.24,0a1.34,1.34 0 0 1 1.35,1.35l0,-0.03zm0,-44.33a1.35,1.35 0 0 1 -1.35,1.35l-50.24,0a1.36,1.36 0 0 1 -1.35,-1.35l0,0.02a1.35,1.35 0 0 1 1.35,-1.34l50.24,0a1.34,1.34 0 0 1 1.35,1.34l0,-0.02zm0,-44.33a1.34,1.34 0 0 1 -1.35,1.34l-50.24,0a1.35,1.35 0 0 1 -1.35,-1.34l0,0.02a1.36,1.36 0 0 1 1.35,-1.35l50.24,0a1.35,1.35 0 0 1 1.35,1.35l0,-0.02zm0,-44.34a1.34,1.34 0 0 1 -1.35,1.35l-50.24,0a1.35,1.35 0 0 1 -1.35,-1.35l0,0.03a1.35,1.35 0 0 1 1.35,-1.35l50.24,0a1.34,1.34 0 0 1 1.35,1.35l0,-0.03zm119.11,266a1.35,1.35 0 0 1 -1.35,1.34l-50.24,0a1.34,1.34 0 0 1 -1.35,-1.34l0,0.03a1.35,1.35 0 0 1 1.35,-1.35l50.24,0a1.36,1.36 0 0 1 1.35,1.35l0,-0.03zm0,-44.34a1.35,1.35 0 0 1 -1.35,1.35l-50.24,0a1.34,1.34 0 0 1 -1.35,-1.35l0,0.04a1.34,1.34 0 0 1 1.35,-1.35l50.24,0a1.35,1.35 0 0 1 1.35,1.35l0,-0.04zm0,-44.33a1.36,1.36 0 0 1 -1.35,1.35l-50.24,0a1.35,1.35 0 0 1 -1.35,-1.35l0,0.03a1.35,1.35 0 0 1 1.35,-1.35l50.24,0a1.36,1.36 0 0 1 1.35,1.35l0,-0.03zm0,-44.34a1.35,1.35 0 0 1 -1.35,1.35l-50.24,0a1.34,1.34 0 0 1 -1.35,-1.35l0,0.04a1.34,1.34 0 0 1 1.35,-1.35l50.24,0a1.35,1.35 0 0 1 1.35,1.35l0,-0.04zm0,-44.33a1.36,1.36 0 0 1 -1.35,1.35l-50.24,0a1.35,1.35 0 0 1 -1.35,-1.35l0,0.03a1.34,1.34 0 0 1 1.35,-1.34l50.24,0a1.35,1.35 0 0 1 1.35,1.34l0,-0.03zm0,-44.33a1.35,1.35 0 0 1 -1.35,1.34l-50.24,0a1.34,1.34 0 0 1 -1.35,-1.34l0,0.03a1.35,1.35 0 0 1 1.35,-1.35l50.24,0a1.36,1.36 0 0 1 1.35,1.35l0,-0.03zm0,-44.34a1.35,1.35 0 0 1 -1.35,1.35l-50.24,0a1.34,1.34 0 0 1 -1.35,-1.35l0,0.04a1.34,1.34 0 0 1 1.35,-1.35l50.24,0a1.35,1.35 0 0 1 1.35,1.35l0,-0.04z"/>
  <g id="svg_4" opacity="0.1">
   <path id="svg_5" fill="#3f3d56" d="m89.930001,644.599997a24.45,24.45 0 0 1 -3.23,12.38a25.34,25.34 0 0 1 0,24.76a22.75,22.75 0 0 1 2.44,6a454.1,454.1 0 0 1 -30.09,-45l0,0a24,24 0 0 1 3.16,-10.56a24.45,24.45 0 0 1 -3.23,-12.3a25.46,25.46 0 0 1 1.46,-8.61a21.39,21.39 0 0 1 1.77,-3.77c2.82,-4.79 7.26,-7.88 12.24,-7.88s9.43,3.09 12.25,7.88a22.28,22.28 0 0 1 1.73,3.65a25.63,25.63 0 0 1 1.5,8.73a24.45,24.45 0 0 1 -3.23,12.38a24.45,24.45 0 0 1 3.23,12.34z"/>
   <ellipse id="svg_6" fill="#3f3d56" ry="20.26" rx="15.47" cy="595.08" cx="74.45"/>
   <ellipse id="svg_7" fill="#3f3d56" ry="20.26" rx="15.47" cy="570.32" cx="74.45"/>
   <path id="svg_8" fill="#1bb1dc" d="m148.250001,446.709997a73.78,73.78 0 0 1 -15.87,45.83a74.13,74.13 0 0 1 -44,118.57c-1.78,0.36 -3.59,0.64 -5.42,0.86a74.89,74.89 0 0 1 -17,0.09q-2.82,-0.3 -5.57,-0.83a73.3,73.3 0 0 1 -23,-8.41a738.54,738.54 0 0 1 -34.91,-83.83a73.79,73.79 0 0 1 13.29,-26.45a74.19,74.19 0 0 1 -11.95,-69.61l56.28,18.89l-52.78,-27.42a74.43,74.43 0 0 1 8.54,-13.52a74.13,74.13 0 1 1 122.43,-82.95l-54.41,40l59,-30.6a74.22,74.22 0 0 1 -1.42,58.73l-44,-0.33l40.66,6.68a74.43,74.43 0 0 1 -5.77,8.48a73.8,73.8 0 0 1 15.9,45.82z"/>
   <path id="svg_9" opacity="0.1" d="m148.250001,538.369997a74.15,74.15 0 0 1 -59.82,72.74c-1.78,0.36 -3.59,0.64 -5.42,0.86a74.89,74.89 0 0 1 -17,0.09q-2.82,-0.3 -5.57,-0.83a73.3,73.3 0 0 1 -23,-8.41a738.54,738.54 0 0 1 -34.91,-83.83a73.79,73.79 0 0 1 13.29,-26.45a73.83,73.83 0 0 1 -15.86,-45.83c0,-8.32 142.32,33.22 132.38,45.83a73.78,73.78 0 0 1 15.91,45.83z"/>
  </g>
  <g id="svg_10" opacity="0.1">
   <path id="svg_11" fill="#3f3d56" d="m982.480001,625.319997c-2.9,9.26 -6,18.45 -9.18,27.43a25.69,25.69 0 0 1 -1.32,-8.21c0,-8.93 4.4,-16.52 10.5,-19.22z"/>
   <path id="svg_12" fill="#1bb1dc" d="m1013.580001,465.749997c0,17.56 -3.54,45.28 -10,77a846.64,846.64 0 0 1 -21.15,82.57c-2.9,9.26 -6,18.45 -9.18,27.43c-3.65,10.19 -7.5,20.11 -11.53,29.6a74.4,74.4 0 0 1 -32.91,-115.76a74.5,74.5 0 0 1 -12,-69.77l56.28,18.93l-52.78,-27.48a74.67,74.67 0 0 1 8.45,-13.55a74.39,74.39 0 0 1 29.12,-114.24a127.55,127.55 0 0 1 48.75,63.93l-9.85,7.25l10.46,-5.43a127,127 0 0 1 6.09,33.32l-2.94,0l3,0.49c0.15,1.84 0.19,3.84 0.19,5.71z"/>
   <path id="svg_13" opacity="0.1" d="m1003.630001,542.749997a846.64,846.64 0 0 1 -21.15,82.57c-2.9,9.26 -6,18.45 -9.18,27.43c-3.65,10.19 -7.5,20.11 -11.53,29.6a74.4,74.4 0 0 1 -32.91,-115.76a74.12,74.12 0 0 1 -15.86,-45.94c0,-5.03 51.72,8.11 90.63,22.1z"/>
  </g>
  <path id="svg_14" opacity="0.1" fill="#1bb1dc" d="m323.530001,123.189997a28.9,28.9 0 0 0 -16.74,1.83a24.71,24.71 0 0 1 -20.14,0a28.26,28.26 0 0 0 -23.68,0.46a14.64,14.64 0 0 1 -6.82,1.71c-9.6,0 -17.59,-9.67 -19.25,-22.43a18.58,18.58 0 0 0 4.8,-5.18c5.63,-9.07 14.35,-14.89 24.14,-14.89s18.4,5.75 24,14.73a18.53,18.53 0 0 0 15.95,8.71l0.25,0c7.65,0 14.27,6.13 17.49,15.06z"/>
  <path id="svg_15" opacity="0.1" fill="#1bb1dc" d="m352.790001,83.139997l-15.52,9.85l9.41,-17.11a15.4,15.4 0 0 0 -9.39,-3.35l-0.25,0a18.16,18.16 0 0 1 -3.22,-0.23l-5.26,3.33l2.26,-4.1a18.68,18.68 0 0 1 -9.2,-7l-9.42,6l5.95,-10.81c-5.51,-6.61 -12.93,-10.67 -21.09,-10.67c-9.79,0 -18.51,5.83 -24.14,14.9a18,18 0 0 1 -16,8.6l-0.53,0c-10.81,0 -19.57,12.26 -19.57,27.37s8.76,27.37 19.57,27.37a14.72,14.72 0 0 0 6.82,-1.7a28.22,28.22 0 0 1 23.68,-0.47a24.71,24.71 0 0 0 20.14,0.05a28.29,28.29 0 0 1 23.48,0.45a14.65,14.65 0 0 0 6.74,1.67c10.81,0 19.57,-12.25 19.57,-27.37a34.76,34.76 0 0 0 -4.03,-16.78z"/>
  <path id="svg_16" opacity="0.1" fill="#1bb1dc" d="m768.530001,286.669997a20.23,20.23 0 0 0 -11.74,1.28a17.27,17.27 0 0 1 -14.1,0a19.8,19.8 0 0 0 -16.58,0.32a10.29,10.29 0 0 1 -4.77,1.2c-6.72,0 -12.31,-6.78 -13.47,-15.71a12.94,12.94 0 0 0 3.36,-3.62c3.94,-6.35 10,-10.42 16.89,-10.42s12.89,4 16.83,10.3a13,13 0 0 0 11.16,6.14l0.18,0c5.35,-0.03 9.98,4.26 12.24,10.51z"/>
  <path id="svg_17" opacity="0.1" fill="#1bb1dc" d="m789.000001,258.639997l-10.86,6.89l6.59,-12a10.69,10.69 0 0 0 -6.57,-2.35l-0.17,0a11.21,11.21 0 0 1 -2.25,-0.17l-3.69,2.34l1.58,-2.87a13.13,13.13 0 0 1 -6.44,-4.89l-6.59,4.18l4.16,-7.57c-3.85,-4.62 -9.05,-7.46 -14.76,-7.46c-6.85,0 -13,4.07 -16.9,10.42a12.65,12.65 0 0 1 -11.17,6l-0.37,0c-7.56,0 -13.7,8.58 -13.7,19.16s6.14,19.16 13.7,19.16a10.17,10.17 0 0 0 4.77,-1.2a19.8,19.8 0 0 1 16.58,-0.32a17.5,17.5 0 0 0 7.09,1.52a17.29,17.29 0 0 0 7,-1.49a19.79,19.79 0 0 1 16.43,0.32a10.24,10.24 0 0 0 4.72,1.17c7.57,0 13.7,-8.58 13.7,-19.16a24.35,24.35 0 0 0 -2.85,-11.68z"/>
  <path id="svg_18" opacity="0.1" fill="#1bb1dc" d="m191.200001,241.669997a20.24,20.24 0 0 1 11.74,1.28a17.24,17.24 0 0 0 14.09,0a19.8,19.8 0 0 1 16.58,0.32a10.32,10.32 0 0 0 4.77,1.2c6.72,0 12.32,-6.78 13.48,-15.71a12.79,12.79 0 0 1 -3.36,-3.62c-3.94,-6.35 -10,-10.42 -16.9,-10.42s-12.88,4 -16.82,10.3a13,13 0 0 1 -11.17,6.14l-0.17,0c-5.35,-0.03 -9.99,4.26 -12.24,10.51z"/>
  <path id="svg_19" opacity="0.1" fill="#1bb1dc" d="m170.720001,213.639997l10.87,6.89l-6.6,-12a10.71,10.71 0 0 1 6.57,-2.35l0.23,0a11.26,11.26 0 0 0 2.25,-0.17l3.68,2.34l-1.58,-2.87a13.15,13.15 0 0 0 6.45,-4.89l6.59,4.18l-4.17,-7.57c3.86,-4.62 9.05,-7.46 14.77,-7.46c6.85,0 12.95,4.07 16.9,10.42a12.64,12.64 0 0 0 11.17,6l0.36,0c7.57,0 13.7,8.58 13.7,19.16s-6.13,19.16 -13.7,19.16a10.23,10.23 0 0 1 -4.77,-1.2a19.8,19.8 0 0 0 -16.58,-0.32a17.45,17.45 0 0 1 -7.08,1.52a17.22,17.22 0 0 1 -7,-1.49a19.81,19.81 0 0 0 -16.44,0.32a10.21,10.21 0 0 1 -4.72,1.17c-7.56,0 -13.7,-8.58 -13.7,-19.16a24.35,24.35 0 0 1 2.8,-11.68z"/>
  <path id="svg_20" fill="#192534" d="m254.300001,401.999997l219.43,106c5.71,2.72 13.36,4.15 20.88,4.15s15.17,-1.43 20.88,-4.15l219.43,-106c11.55,-5.58 11.55,-14.66 0,-20.23l-219.43,-106c-5.71,-2.72 -13.36,-4.15 -20.88,-4.15s-15.17,1.43 -20.88,4.15l-219.43,106c-11.51,5.57 -11.51,14.65 0,20.23z"/>
  <path id="svg_21" fill="#192534" d="m734.920001,510.549997s-40.07,-19.32 -45.39,-21.92s-6.74,-2.46 -12.32,0.13s-161.85,78.12 -161.85,78.12c-5.84,2.73 -13.36,4.15 -20.88,4.15s-15.17,-1.42 -20.88,-4.15c0,0 -152.13,-73.4 -159.26,-76.9c-7.78,-3.76 -10,-3.76 -17,-0.39l-43.31,20.88c-11.55,5.58 -11.55,14.65 0,20.23l219.43,106c5.71,2.72 13.36,4.15 20.88,4.15s15.17,-1.43 20.88,-4.15l219.43,-106c11.81,-5.45 11.81,-14.52 0.26,-20.1l0.01,-0.05z"/>
  <path id="svg_22" fill="#192534" d="m734.920001,639.329997s-40.07,-19.32 -45.39,-21.92s-6.74,-2.46 -12.32,0.13s-161.72,78.2 -161.72,78.2c-5.84,2.73 -13.36,4.16 -20.88,4.16s-15.17,-1.43 -20.88,-4.16c0,0 -152.13,-73.4 -159.26,-76.9c-7.78,-3.76 -10,-3.76 -17,-0.39l-43.31,20.88c-11.55,5.58 -11.55,14.66 0,20.23l219.43,106c5.71,2.85 13.36,4.15 20.88,4.15s15.17,-1.43 20.88,-4.15l219.44,-106c11.68,-5.57 11.68,-14.65 0.13,-20.23z"/>
  <ellipse id="svg_23" fill="#192534" ry="66.17" rx="47.64" cy="211.8" cx="361.43"/>
  <rect id="svg_24" fill="#1bb1dc" height="42.35" width="42.35" y="320.32" x="356.14"/>
  <path id="svg_25" fill="#fbbebe" d="m323.790001,524.369997l13.91,19.56a25.34,25.34 0 0 1 10.05,-20.26a123.83,123.83 0 0 0 -19.69,-15.79a1.58,1.58 0 0 0 -1.14,-0.38a1.65,1.65 0 0 0 -0.85,0.63c-2.07,2.45 -4.7,5.69 -5.59,8.83c-0.85,2.92 1.61,5.09 3.31,7.41z"/>
  <path id="svg_26" fill="#f2f2f2" d="m351.450001,521.699997c2.15,0 4.14,1 6,2.07a30.77,30.77 0 0 1 6.91,4.53a10.48,10.48 0 0 1 3.54,7.25c0,2.23 -0.92,4.34 -1.72,6.42a55.5,55.5 0 0 0 -2.58,30.4c0.65,3.32 1.61,6.8 0.58,10c-0.93,2.94 -3.35,5.12 -5.72,7.09c-3.78,3.13 -7.94,6.19 -12.81,6.85s-10.5,-2 -11.58,-6.74c-0.64,-2.82 0.37,-5.71 1.07,-8.51c1.67,-6.69 1.63,-13.67 1.58,-20.57a28.38,28.38 0 0 0 -0.52,-6.25c-0.33,-1.44 -0.89,-2.82 -1.36,-4.23c-1.26,-3.79 -1.81,-8 -0.37,-11.75a23.41,23.41 0 0 1 3.25,-5.34c3.4,-4.55 7.07,-11.25 13.73,-11.22z"/>
  <path id="svg_27" fill="#fbbebe" d="m343.900001,228.589997c0.12,2.48 0.21,5.1 -0.94,7.3c-1,1.95 -2.85,3.3 -4.63,4.59l-5.93,4.29c-0.3,0.21 -0.63,0.48 -0.66,0.84a1.26,1.26 0 0 0 0.64,1a19.67,19.67 0 0 0 8.23,3.75a39,39 0 0 0 6.39,0.54c11.12,0.33 22.43,0.58 33.16,-2.34a17,17 0 0 0 5.48,-2.33a7,7 0 0 0 3.08,-4.91c-2.74,-0.15 -5.16,-1.76 -7.42,-3.31s-4.57,-3.24 -5.29,-5.82c-0.45,-1.61 -0.19,-3.35 -0.56,-5c-0.62,-2.66 -2.84,-4.65 -5.22,-6c-6.14,-3.48 -13.39,-3.69 -20.08,-5.51c-2.4,-0.65 -6.69,-3.53 -6.85,0.36c-0.17,4.13 0.4,8.43 0.6,12.55z"/>
  <path id="svg_28" opacity="0.1" d="m343.900001,228.589997c0.12,2.48 0.21,5.1 -0.94,7.3c-1,1.95 -2.85,3.3 -4.63,4.59l-5.93,4.29c-0.3,0.21 -0.63,0.48 -0.66,0.84a1.26,1.26 0 0 0 0.64,1a19.67,19.67 0 0 0 8.23,3.75a39,39 0 0 0 6.39,0.54c11.12,0.33 22.43,0.58 33.16,-2.34a17,17 0 0 0 5.48,-2.33a7,7 0 0 0 3.08,-4.91c-2.74,-0.15 -5.16,-1.76 -7.42,-3.31s-4.57,-3.24 -5.29,-5.82c-0.45,-1.61 -0.19,-3.35 -0.56,-5c-0.62,-2.66 -2.84,-4.65 -5.22,-6c-6.14,-3.48 -13.39,-3.69 -20.08,-5.51c-2.4,-0.65 -6.69,-3.53 -6.85,0.36c-0.17,4.13 0.4,8.43 0.6,12.55z"/>
  <path id="svg_29" fill="#01e7c0" d="m333.080001,367.589997c-8.64,-2.12 -17.73,1 -25.56,5.17s-15.07,9.63 -23.39,12.78c-6.67,2.53 -14.1,3.65 -19.71,8.06c-5,4 -7.89,10.07 -9.75,16.2a25.76,25.76 0 0 0 -1.38,10.7a29,29 0 0 0 2.63,8c5.8,12.84 13.12,24.91 20.43,37c13.1,21.61 26.32,43.38 43.3,62.11c5.42,-3.72 4.89,-12.68 10.26,-16.46c1.35,-1 3,-1.5 4.13,-2.69c2.54,-2.63 1.55,-6.93 0.35,-10.38a519.51,519.51 0 0 0 -26.41,-62.68c14.61,0.1 26.86,-11.32 41.25,-13.88a75.9,75.9 0 0 1 12.06,-0.8a409.14,409.14 0 0 0 42.56,-3c5.12,-0.64 10.55,-1.51 14.4,-4.95c4,-3.58 5.42,-9.16 6.63,-14.39c2.54,-10.89 8.91,-20.45 12.83,-30.92c1,-2.7 2,-5.41 3.23,-8c1.08,-2.22 2.36,-4.34 3.5,-6.53c3.6,-7 5.64,-14.67 7.39,-22.34c2.1,-9.2 4,-18.6 5.94,-27.84c1.3,-6.36 3.83,-13.26 0.81,-19c-1.71,-3.25 -4.94,-5.44 -8.28,-7c-3.57,-1.63 -7.55,-2.69 -11.43,-2.08c-7.64,1.21 -12.79,8.21 -17.08,14.63l-6.7,10.09a71.28,71.28 0 0 0 -4.42,7.23c-2.52,4.94 -3.89,10.36 -5.82,15.55c-5.21,13.94 -15,26.53 -28.3,33.17c-3.54,1.77 -7.28,3.1 -10.84,4.81c-2.79,1.34 -5.47,2.91 -8.29,4.19c-7.63,3.54 -16.13,5.26 -24.34,3.25z"/>
  <circle id="svg_30" fill="#fbbebe" r="26.47" cy="203.86" cx="366.73"/>
  <path id="svg_31" fill="#1bb1dc" d="m378.270001,233.949997c-1.12,3 -2.3,6.11 -4.41,8.55c-3.78,4.36 -9.89,5.91 -15.66,6.14a46.29,46.29 0 0 1 -18.8,-3.19c-2.56,-1 -5.17,-2.28 -7.9,-2c-3.95,0.35 -6.88,3.67 -10.36,5.58c-1.74,1 -3.65,1.57 -5.48,2.36a30.46,30.46 0 0 0 -17.55,22.14c-2,11.28 7.08,22 12.58,32.06c2.41,4.42 5.22,8.7 6.56,13.54c2.25,8.14 0.08,16.81 -2.77,24.76s-6.41,15.81 -7,24.23c-0.18,2.47 0.68,5.8 3.16,5.77a5.45,5.45 0 0 0 2.53,-1a22.5,22.5 0 0 1 14.62,-2.69c3.51,0.57 6.85,2 10.36,2.49c6.9,1 13.78,-1.42 20.31,-3.82c6.23,-2.29 12.71,-4.75 17.15,-9.69c3.33,-3.7 5.24,-8.53 8.66,-12.15c4.5,-4.75 11.29,-7.08 15.05,-12.43c2.21,-3.15 3.11,-7 4.39,-10.62s3.2,-7.32 6.58,-9.15c-1.81,-3.16 -3.83,-6.55 -3.61,-10.19c0.19,-3.17 1.95,-6 3.25,-8.9c0.85,-1.91 1.52,-3.9 2.19,-5.88l2.16,-6.43c0.58,-1.75 1.17,-3.49 1.61,-5.28c0.75,-3 1.06,-6.2 1.94,-9.21c2.24,-7.77 7.94,-14 13.21,-20.1a84.82,84.82 0 0 0 -14.21,-4.1a21.37,21.37 0 0 1 -4.76,-1.24c-1.75,-0.77 -3.23,-2 -4.92,-2.92c-2.64,-1.37 -5.67,-1.74 -8.61,-2.19a122,122 0 0 1 -20.27,-4.44z"/>
  <path id="svg_32" fill="#fbbebe" d="m288.950001,351.729997a25.8,25.8 0 0 0 0.23,7a27.39,27.39 0 0 0 2.87,6.8c5.5,10.51 10,21.51 14.53,32.49a43.69,43.69 0 0 1 2.91,8.78c0.42,2.28 0.47,4.62 0.77,6.92a22,22 0 0 0 1.79,6.56c1.06,2.26 6.8,14.33 9,15.51c4.73,2.57 11.08,0.2 14.09,-4.27s-1,-20.36 -2.38,-25.55s-4.24,-9.87 -6.88,-14.56a267.46,267.46 0 0 1 -12.53,-25.28c-3.18,-7.38 -6.08,-15.36 -4.74,-23.29c0.75,-4.46 2.81,-8.59 4.36,-12.84s2.6,-8.95 1.28,-13.29a6.28,6.28 0 0 0 -1,-2.11a6.72,6.72 0 0 0 -2.8,-1.81c-4.68,-1.89 -14.25,-3.46 -16.27,2.83c-0.83,2.61 -1,5.46 -1.7,8.13a97.61,97.61 0 0 0 -2.34,12.91c-0.61,4.99 -0.9,10.03 -1.19,15.07z"/>
  <path id="svg_33" fill="#fbbebe" d="m385.950001,370.529997q-8.85,10.44 -17.22,21.29l14.44,10.67a30.44,30.44 0 0 1 2.1,-5.5a30.82,30.82 0 0 1 3.43,-4.85l14.63,-18.13a25.91,25.91 0 0 0 -11.35,-3.84c-1.93,0.28 -4.1,0.08 -6.03,0.36z"/>
  <path id="svg_34" fill="#fbbebe" d="m449.340001,255.799997c3.82,0.87 7.64,1.74 11.41,2.8c7.83,2.21 15.75,5.42 21.17,11.49c1.2,1.34 2.29,3.38 1.23,4.84a6.78,6.78 0 0 1 -1.26,1.12c-1.47,1.22 -2.29,3 -3.2,4.71a36.89,36.89 0 0 1 -6.69,8.86a29.16,29.16 0 0 0 -7.39,-5.83l-6,-3.75c-2.65,-1.67 -5.4,-3.37 -8.5,-3.85c-3.56,-0.55 -7.15,0.57 -10.75,0.84a22.78,22.78 0 0 1 -13.11,-3a3.14,3.14 0 0 1 -1.24,-1.07a3.1,3.1 0 0 1 -0.33,-1.16a15.74,15.74 0 0 1 3.59,-11.48c1.85,-2.35 6,-6.75 9.19,-7.16c1.57,-0.2 3.8,0.83 5.35,1.18l6.53,1.46z"/>
  <path id="svg_35" fill="#01e7c0" d="m444.690001,280.509997a25.58,25.58 0 0 0 -3.14,1.46c-7.84,4.09 -15.93,8.39 -21.32,15.4a61.22,61.22 0 0 0 -6.44,11.51l-13.06,27.78l-2.74,5.83l-4.2,8.82l-10.68,22.72c3.81,-0.66 7.89,-0.62 11.36,1.08s6.17,5.35 5.88,9.21c3.1,-0.27 4.75,-3.64 6.93,-5.86c1.78,-1.82 4.12,-3 6.18,-4.47a48.85,48.85 0 0 0 7.33,-7.11a215,215 0 0 1 22.17,-21.36a49.87,49.87 0 0 0 4.4,-3.94a36.31,36.31 0 0 0 6.7,-11.27a98.13,98.13 0 0 0 6.58,-24.5c0.68,-5.12 0.92,-10.52 -1.17,-15.24a17,17 0 0 0 -18.75,-9.4"/>
  <path id="svg_36" opacity="0.1" d="m443.690001,281.509997a25.58,25.58 0 0 0 -3.14,1.46c-7.84,4.09 -15.93,8.39 -21.32,15.4a61.22,61.22 0 0 0 -6.44,11.51l-13.06,27.78l-2.74,5.83l-4.2,8.82l-10.68,22.72c3.81,-0.66 7.89,-0.62 11.36,1.08s6.17,5.35 5.88,9.21c3.1,-0.27 4.75,-3.64 6.93,-5.86c1.78,-1.82 4.12,-3 6.18,-4.47a48.85,48.85 0 0 0 7.33,-7.11a215,215 0 0 1 22.17,-21.36a49.87,49.87 0 0 0 4.4,-3.94a36.31,36.31 0 0 0 6.7,-11.27a98.13,98.13 0 0 0 6.58,-24.5c0.68,-5.12 0.92,-10.52 -1.17,-15.24a17,17 0 0 0 -18.75,-9.4"/>
  <path id="svg_37" fill="#f2f2f2" d="m374.840001,388.219997l-10.94,-1.2a1.72,1.72 0 0 0 -0.9,0.07a1.6,1.6 0 0 0 -0.63,0.77q-5.28,9.94 -9.86,20.24c-1.7,3.81 -3.29,8.38 -1.14,12c0.64,1.06 1.57,1.94 2.17,3c1.36,2.49 0.74,5.59 -0.24,8.26a4.33,4.33 0 0 0 -0.42,2.43c0.27,1.12 1.4,1.79 2.44,2.3a85.79,85.79 0 0 0 27.33,8.16a2.83,2.83 0 0 0 2.13,-0.31a2.86,2.86 0 0 0 0.82,-1.47a26.17,26.17 0 0 0 0.89,-3.26c0.72,-3.94 -0.39,-8 -1.23,-11.88c-1.36,-6.36 -2,-13.06 -0.16,-19.29a25.85,25.85 0 0 1 3.5,-7.32c1.74,-2.54 -4.21,-4.93 -5.79,-6.71c-2.68,-3.05 -3.5,-5.3 -7.97,-5.79z"/>
  <path id="svg_38" fill="#1bb1dc" d="m294.220001,300.129997l-3.32,20.32c2.79,-2.64 6.94,-3.12 10.78,-3.2s8.31,0.29 11,3.17c1.09,1.18 1.78,2.67 2.84,3.88s2.71,2.12 4.22,1.6a3.65,3.65 0 0 0 2.14,-2.53a11,11 0 0 0 0.2,-3.43l-1.09,-22.42c-0.27,-5.41 -0.55,-10.94 -2.54,-16a25,25 0 0 0 -4.67,-7.55a8.18,8.18 0 0 0 -2,-1.73a8.37,8.37 0 0 0 -2.65,-0.79c-2.6,-0.41 -6.83,-1.09 -9.25,0.32c-2,1.19 -2.19,4 -2.42,6.08c-0.84,7.48 -2.02,14.89 -3.24,22.28z"/>
  <ellipse id="svg_39" fill="#192534" ry="15.88" rx="37.06" cy="187.98" cx="366.73"/>
  <circle id="svg_40" fill="#192534" r="21.17" cy="166.8" cx="319.08"/>
  <circle id="svg_41" fill="#192534" r="21.17" cy="161.51" cx="393.2"/>
  <path id="svg_42" opacity="0.1" d="m403.240001,149.449997a21.18,21.18 0 0 1 4.67,27.62a22.35,22.35 0 0 0 1.8,-1.95a21.18,21.18 0 0 0 -32.92,-26.65a22.45,22.45 0 0 0 -1.53,2.17a21.17,21.17 0 0 1 27.98,-1.19z"/>
  <path id="svg_43" opacity="0.1" d="m313.540001,152.039997a21.18,21.18 0 0 1 26.6,8.75a21.89,21.89 0 0 0 -0.88,-2.5a21.18,21.18 0 0 0 -38.92,16.7a19.35,19.35 0 0 0 1.2,2.36a21.17,21.17 0 0 1 12,-25.31z"/>
  <path id="svg_44" opacity="0.1" d="m366.730001,198.559997c-18.36,0 -33.59,-5.72 -36.54,-13.23a7.35,7.35 0 0 0 -0.52,2.65c0,8.77 16.59,15.88 37.06,15.88s37.06,-7.11 37.06,-15.88a7.15,7.15 0 0 0 -0.52,-2.65c-2.95,7.55 -18.18,13.23 -36.54,13.23z"/>
  <path stroke="null" id="svg_46" fill="#55acee" d="m759.720024,156.707056a33.38007,33.38007 0 0 1 -9.410431,2.609177a16.646549,16.646549 0 0 0 7.218723,-9.09733a32.806051,32.806051 0 0 1 -10.436708,3.983343a16.403026,16.403026 0 0 0 -28.387845,11.219461a16.803099,16.803099 0 0 0 0.417468,3.757215a46.530322,46.530322 0 0 1 -33.832328,-17.168384a16.455209,16.455209 0 0 0 5.113987,21.917086a15.88119,15.88119 0 0 1 -7.462246,-2.035158l0,0.19134a16.42042,16.42042 0 0 0 13.167646,16.107319a16.872678,16.872678 0 0 1 -4.313839,0.574019a16.542182,16.542182 0 0 1 -3.096223,-0.295707a16.42042,16.42042 0 0 0 15.34196,11.393406a32.823446,32.823446 0 0 1 -20.386369,6.957805a32.388583,32.388583 0 0 1 -3.913765,-0.243523a45.851936,45.851936 0 0 0 25.117677,7.427457c30.214269,0 46.739056,-25.030704 46.739056,-46.756451c0,-0.713175 0,-1.408956 0,-2.104736a33.414859,33.414859 0 0 0 8.123238,-8.436339z"/>
  <polygon id="svg_52" fill="#464a5f" points="424.31 393.58 426.96 398.37 513.19 380.09 509.78 374.67 424.31 393.58"/>
  <path id="svg_53" fill="#464a5f" d="m413.980001,398.239997l-13.06,-77.46a2.48,2.48 0 0 1 2.18,-2.87l99,-10.56a2.47,2.47 0 0 1 2.71,2.12l9.26,67.85l-100.09,20.92z"/>
  <path id="svg_54" opacity="0.1" d="m413.980001,398.239997l-13.06,-77.46a2.48,2.48 0 0 1 2.18,-2.87l99,-10.56a2.47,2.47 0 0 1 2.71,2.12l9.26,67.85l-100.09,20.92z"/>
  <path id="svg_55" fill="#464a5f" d="m415.490001,398.239997l-13.05,-77.46a2.47,2.47 0 0 1 2.17,-2.87l99,-10.56a2.47,2.47 0 0 1 2.71,2.12l9.25,67.85l-100.08,20.92z"/>
  <polygon id="svg_56" fill="#1bb1dc" points="409.31 324.24 420.03 390.05 509.53 371.64 501.21 313.15 409.31 324.24"/>
  <path id="svg_57" fill="#9c9ca1" d="m426.460001,396.879997l-0.63,-1.27l-11.85,2.65l30.18,46.12a3.9,3.9 0 0 0 4.36,1.61l106,-30.81a3.9,3.9 0 0 0 1.27,-6.86l-41.08,-31.11l-8.57,2l0.38,0.88l-80.06,16.79z"/>
  <path id="svg_58" opacity="0.1" d="m426.460001,396.879997l-0.63,-1.27l-11.85,2.65l30.18,46.12a3.9,3.9 0 0 0 4.36,1.61l106,-30.81a3.9,3.9 0 0 0 1.27,-6.86l-41.08,-31.11l-8.57,2l0.38,0.88l-80.06,16.79z"/>
  <path id="svg_59" fill="#9c9ca1" d="m427.970001,396.879997l-0.63,-1.27l-11.85,2.65l30.18,46.12a3.9,3.9 0 0 0 4.36,1.61l106,-30.81a3.9,3.9 0 0 0 1.26,-6.86l-41.08,-31.11l-8.57,2l0.38,0.88l-80.05,16.79z"/>
  <path id="svg_60" opacity="0.1" d="m475.250001,415.749997l34.06,-8.87a0.67,0.67 0 0 1 0.61,0.15l15.13,13.73a0.66,0.66 0 0 1 -0.26,1.12l-36,10.64a0.65,0.65 0 0 1 -0.68,-0.21l-13.17,-15.51a0.67,0.67 0 0 1 0.31,-1.05z"/>
  <path id="svg_61" fill="#939498" d="m476.010001,414.999997l34.06,-8.85a0.66,0.66 0 0 1 0.61,0.15l15.11,13.72a0.66,0.66 0 0 1 -0.26,1.12l-36,10.64a0.67,0.67 0 0 1 -0.69,-0.21l-13.16,-15.51a0.65,0.65 0 0 1 0.33,-1.06z"/>
  <g id="svg_62" opacity="0.1">
   <path id="svg_63" d="m428.030001,403.289997l1.53,2.46a0.3,0.3 0 0 0 0.31,0.14l5.17,-1.15a0.3,0.3 0 0 0 0.17,-0.46l-1.71,-2.4a0.29,0.29 0 0 0 -0.3,-0.12l-5,1.07a0.29,0.29 0 0 0 -0.17,0.46z"/>
   <path id="svg_64" d="m434.790001,401.879997l1.52,2.47a0.31,0.31 0 0 0 0.32,0.13l5.16,-1.15a0.29,0.29 0 0 0 0.17,-0.46l-1.7,-2.38a0.3,0.3 0 0 0 -0.3,-0.12l-5,1.07a0.29,0.29 0 0 0 -0.17,0.44z"/>
   <path id="svg_65" d="m441.330001,400.459997l1.53,2.46a0.3,0.3 0 0 0 0.31,0.13l5.17,-1.15a0.3,0.3 0 0 0 0.17,-0.46l-1.72,-2.38a0.31,0.31 0 0 0 -0.3,-0.12l-5,1.07a0.3,0.3 0 0 0 -0.16,0.45z"/>
   <path id="svg_66" d="m447.790001,399.059997l1.51,2.43a0.32,0.32 0 0 0 0.34,0.14l5.12,-1.14a0.32,0.32 0 0 0 0.18,-0.49l-1.68,-2.35a0.31,0.31 0 0 0 -0.32,-0.12l-5,1.06a0.32,0.32 0 0 0 -0.15,0.47z"/>
   <path id="svg_67" d="m447.260001,402.819997l1.53,2.46a0.28,0.28 0 0 0 0.31,0.13l5.16,-1.15a0.28,0.28 0 0 0 0.17,-0.45l-1.7,-2.39a0.29,0.29 0 0 0 -0.3,-0.11l-5,1.07a0.29,0.29 0 0 0 -0.17,0.44z"/>
   <path id="svg_68" d="m440.570001,404.239997l1.53,2.46a0.3,0.3 0 0 0 0.32,0.13l5.16,-1.15a0.29,0.29 0 0 0 0.17,-0.46l-1.71,-2.34a0.28,0.28 0 0 0 -0.3,-0.11l-5,1.07a0.3,0.3 0 0 0 -0.17,0.4z"/>
   <path id="svg_69" d="m444.920001,407.259997l1.53,2.47a0.32,0.32 0 0 0 0.32,0.13l5.16,-1.15a0.29,0.29 0 0 0 0.17,-0.46l-1.71,-2.37a0.29,0.29 0 0 0 -0.3,-0.12l-5,1.07a0.3,0.3 0 0 0 -0.17,0.43z"/>
   <path id="svg_70" d="m451.070001,409.879997l1.53,2.46a0.28,0.28 0 0 0 0.31,0.13l5.16,-1.15a0.29,0.29 0 0 0 0.18,-0.45l-1.71,-2.39a0.29,0.29 0 0 0 -0.3,-0.11l-5,1.07a0.29,0.29 0 0 0 -0.17,0.44z"/>
   <path id="svg_71" d="m452.140001,414.189997l2.47,3.1a0.29,0.29 0 0 0 0.3,0.1l5.2,-1.35a0.3,0.3 0 0 0 0.16,-0.47l-2.56,-3.12a0.29,0.29 0 0 0 -0.3,-0.1l-5.12,1.38a0.29,0.29 0 0 0 -0.15,0.46z"/>
   <path id="svg_72" d="m458.940001,412.489997l2.54,3.19a0.29,0.29 0 0 0 0.3,0.1l6.79,-1.88a0.3,0.3 0 0 0 0.15,-0.47l-2.56,-3.13a0.29,0.29 0 0 0 -0.3,-0.1l-6.76,1.82a0.3,0.3 0 0 0 -0.16,0.47z"/>
   <path id="svg_73" d="m445.490001,415.879997l2.47,3.1a0.29,0.29 0 0 0 0.3,0.1l5.2,-1.35a0.3,0.3 0 0 0 0.16,-0.47l-2.56,-3.13a0.28,0.28 0 0 0 -0.3,-0.09l-5.12,1.37a0.3,0.3 0 0 0 -0.15,0.47z"/>
   <path id="svg_74" d="m438.460001,417.659997l2.47,3.09a0.29,0.29 0 0 0 0.3,0.1l5.2,-1.35a0.3,0.3 0 0 0 0.16,-0.47l-2.55,-3.15a0.31,0.31 0 0 0 -0.31,-0.1l-5.12,1.38a0.3,0.3 0 0 0 -0.15,0.5z"/>
   <path id="svg_75" d="m454.240001,397.549997l1.5,2.43a0.32,0.32 0 0 0 0.34,0.14l5.12,-1.14a0.31,0.31 0 0 0 0.18,-0.49l-1.68,-2.35a0.31,0.31 0 0 0 -0.32,-0.12l-4.94,1.06a0.3,0.3 0 0 0 -0.2,0.47z"/>
   <path id="svg_76" d="m453.790001,401.329997l1.5,2.43a0.32,0.32 0 0 0 0.34,0.14l5.12,-1.14a0.31,0.31 0 0 0 0.18,-0.49l-1.64,-2.39a0.31,0.31 0 0 0 -0.32,-0.12l-4.94,1.12a0.31,0.31 0 0 0 -0.24,0.45z"/>
   <path id="svg_77" d="m460.510001,396.129997l1.5,2.43a0.32,0.32 0 0 0 0.34,0.14l5.12,-1.14a0.31,0.31 0 0 0 0.18,-0.49l-1.68,-2.35a0.31,0.31 0 0 0 -0.32,-0.12l-4.94,1.06a0.31,0.31 0 0 0 -0.2,0.47z"/>
   <path id="svg_78" d="m478.850001,392.129997l2.12,2.26a0.28,0.28 0 0 0 0.24,0.07l4.57,-1.06a0.25,0.25 0 0 0 0.12,-0.43l-2.39,-2.26a0.27,0.27 0 0 0 -0.24,-0.06l-4.3,1.06a0.25,0.25 0 0 0 -0.12,0.42z"/>
   <path id="svg_79" d="m484.710001,390.769997l2.13,2.26a0.24,0.24 0 0 0 0.24,0.07l4.57,-1.06a0.24,0.24 0 0 0 0.11,-0.42l-2.39,-2.27a0.29,0.29 0 0 0 -0.24,-0.06l-4.3,1.06a0.26,0.26 0 0 0 -0.12,0.42z"/>
   <path id="svg_80" d="m478.970001,395.779997l2.13,2.26a0.24,0.24 0 0 0 0.24,0.07l4.57,-1.05a0.25,0.25 0 0 0 0.12,-0.43l-2.4,-2.26a0.25,0.25 0 0 0 -0.23,-0.07l-4.3,1.07a0.25,0.25 0 0 0 -0.13,0.41z"/>
   <path id="svg_81" d="m472.960001,397.179997l2,2.16a0.31,0.31 0 0 0 0.3,0.09l4.43,-1a0.32,0.32 0 0 0 0.14,-0.54l-2.29,-2.16a0.3,0.3 0 0 0 -0.29,-0.07l-4.16,1a0.32,0.32 0 0 0 -0.13,0.52z"/>
   <path id="svg_82" d="m477.530001,403.989997l2,2.16a0.33,0.33 0 0 0 0.3,0.09l4.43,-1a0.31,0.31 0 0 0 0.14,-0.53l-2.29,-2.16a0.33,0.33 0 0 0 -0.29,-0.08l-4.16,1a0.32,0.32 0 0 0 -0.13,0.52z"/>
   <path id="svg_83" d="m471.260001,405.409997l2,2.16a0.33,0.33 0 0 0 0.3,0.09l4.42,-1a0.31,0.31 0 0 0 0.15,-0.53l-2.29,-2.16a0.32,0.32 0 0 0 -0.29,-0.08l-4.17,1a0.32,0.32 0 0 0 -0.12,0.52z"/>
   <path id="svg_84" d="m464.890001,406.979997l2,2.16a0.31,0.31 0 0 0 0.3,0.09l4.43,-1a0.32,0.32 0 0 0 0.14,-0.54l-2.29,-2.16a0.3,0.3 0 0 0 -0.29,-0.07l-4.16,1a0.31,0.31 0 0 0 -0.13,0.52z"/>
   <path id="svg_85" d="m458.160001,408.309997l2.06,2.19a0.3,0.3 0 0 0 0.28,0.09l4.47,-1a0.29,0.29 0 0 0 0.14,-0.5l-2.32,-2.21a0.29,0.29 0 0 0 -0.27,-0.07l-4.21,1a0.28,0.28 0 0 0 -0.15,0.5z"/>
   <path id="svg_86" d="m471.200001,401.469997l2,2.16a0.32,0.32 0 0 0 0.3,0.09l4.42,-1a0.31,0.31 0 0 0 0.15,-0.53l-2.28,-2.19a0.32,0.32 0 0 0 -0.29,-0.08l-4.17,1a0.31,0.31 0 0 0 -0.13,0.55z"/>
   <path id="svg_87" d="m465.080001,402.879997l2,2.15a0.29,0.29 0 0 0 0.3,0.09l4.43,-1a0.31,0.31 0 0 0 0.14,-0.53l-2.29,-2.16a0.28,0.28 0 0 0 -0.29,-0.08l-4.16,1a0.31,0.31 0 0 0 -0.13,0.53z"/>
   <path id="svg_88" d="m458.530001,404.269997l2,2.16a0.31,0.31 0 0 0 0.3,0.09l4.42,-1a0.32,0.32 0 0 0 0.15,-0.54l-2.29,-2.16a0.31,0.31 0 0 0 -0.29,-0.07l-4.17,1a0.31,0.31 0 0 0 -0.12,0.52z"/>
   <path id="svg_89" d="m451.790001,405.879997l2.06,2.19a0.34,0.34 0 0 0 0.29,0.08l4.47,-1a0.29,0.29 0 0 0 0.13,-0.5l-2.32,-2.19a0.3,0.3 0 0 0 -0.27,-0.07l-4.21,1a0.3,0.3 0 0 0 -0.15,0.49z"/>
   <path id="svg_90" d="m477.500001,399.989997l2,2.15a0.31,0.31 0 0 0 0.3,0.1l4.42,-1a0.31,0.31 0 0 0 0.15,-0.53l-2.29,-2.16a0.29,0.29 0 0 0 -0.29,-0.08l-4.17,1a0.32,0.32 0 0 0 -0.12,0.52z"/>
   <path id="svg_91" d="m466.790001,398.759997l2,2.16a0.32,0.32 0 0 0 0.3,0.09l4.42,-1a0.31,0.31 0 0 0 0.14,-0.53l-2.28,-2.16a0.32,0.32 0 0 0 -0.29,-0.08l-4.17,1a0.31,0.31 0 0 0 -0.12,0.52z"/>
   <path id="svg_92" d="m490.370001,389.339997l2.23,2.36a0.19,0.19 0 0 0 0.18,0.06l4.72,-1.1a0.19,0.19 0 0 0 0.09,-0.32l-2.51,-2.37a0.19,0.19 0 0 0 -0.18,0l-4.44,1.1a0.18,0.18 0 0 0 -0.09,0.27z"/>
   <path id="svg_93" d="m496.070001,388.069997l2.23,2.37a0.21,0.21 0 0 0 0.18,0.06l4.72,-1.1a0.19,0.19 0 0 0 0.09,-0.32l-2.5,-2.37a0.17,0.17 0 0 0 -0.17,0l-4.45,1.1a0.18,0.18 0 0 0 -0.1,0.26z"/>
   <path id="svg_94" d="m501.940001,386.729997l2,2.19a0.18,0.18 0 0 0 0.19,0.06l4.4,-1.2a0.2,0.2 0 0 0 0.07,-0.33l-2.27,-1.91a0.2,0.2 0 0 0 -0.16,0l-4.17,0.92a0.18,0.18 0 0 0 -0.06,0.27z"/>
   <path id="svg_95" d="m508.080001,388.769997l2,2.2a0.2,0.2 0 0 0 0.18,0.06l4.4,-1.2a0.19,0.19 0 0 0 0.07,-0.33l-2.27,-1.91a0.16,0.16 0 0 0 -0.16,0l-4.16,0.91a0.19,0.19 0 0 0 -0.06,0.27z"/>
   <path id="svg_96" d="m507.340001,392.769997l1.93,2.08a0.23,0.23 0 0 0 0.25,0.07l4.24,-1.15a0.25,0.25 0 0 0 0.1,-0.44l-2.15,-1.82a0.25,0.25 0 0 0 -0.22,-0.05l-4,0.89a0.25,0.25 0 0 0 -0.15,0.42z"/>
   <path id="svg_97" d="m502.330001,397.879997l1.93,2.09a0.25,0.25 0 0 0 0.25,0.07l4.28,-1.16a0.25,0.25 0 0 0 0.1,-0.43l-2.15,-1.82a0.25,0.25 0 0 0 -0.22,0l-4,0.88a0.26,0.26 0 0 0 -0.19,0.37z"/>
   <path id="svg_98" d="m496.310001,399.419997l1.93,2.08a0.23,0.23 0 0 0 0.25,0.07l4.24,-1.15a0.25,0.25 0 0 0 0.1,-0.44l-2.15,-1.82a0.25,0.25 0 0 0 -0.22,0l-4,0.89a0.25,0.25 0 0 0 -0.15,0.37z"/>
   <path id="svg_99" d="m508.000001,396.359997l1.93,2.08a0.27,0.27 0 0 0 0.25,0.08l4.25,-1.16a0.25,0.25 0 0 0 0.09,-0.44l-2.15,-1.81a0.29,0.29 0 0 0 -0.22,-0.06l-4,0.89a0.26,0.26 0 0 0 -0.15,0.42z"/>
   <path id="svg_100" d="m507.020001,400.879997l2.91,2.62a0.3,0.3 0 0 0 0.24,0l4.21,-1.19a0.25,0.25 0 0 0 0.1,-0.43l-3.14,-2.75a0.23,0.23 0 0 0 -0.24,0l-4,1.33a0.24,0.24 0 0 0 -0.08,0.42z"/>
   <path id="svg_101" d="m496.790001,391.609997l2,2.2a0.17,0.17 0 0 0 0.18,0.05l4.4,-1.2a0.18,0.18 0 0 0 0.07,-0.32l-2.27,-1.92a0.18,0.18 0 0 0 -0.16,0l-4.16,0.92a0.19,0.19 0 0 0 -0.06,0.27z"/>
   <path id="svg_102" d="m491.140001,393.019997l1.93,2.08a0.27,0.27 0 0 0 0.25,0.08l4.25,-1.16a0.25,0.25 0 0 0 0.09,-0.44l-2.15,-1.81a0.29,0.29 0 0 0 -0.22,-0.06l-4,0.89a0.25,0.25 0 0 0 -0.15,0.42z"/>
   <path id="svg_103" d="m489.980001,397.049997l1.93,2.09a0.25,0.25 0 0 0 0.25,0.07l4.24,-1.16a0.25,0.25 0 0 0 0.1,-0.43l-2.16,-1.82a0.25,0.25 0 0 0 -0.22,-0.05l-4,0.88a0.25,0.25 0 0 0 -0.14,0.42z"/>
   <path id="svg_104" d="m483.990001,398.499997l1.93,2.09a0.25,0.25 0 0 0 0.25,0.07l4.24,-1.16a0.25,0.25 0 0 0 0.1,-0.43l-2.16,-1.82a0.23,0.23 0 0 0 -0.21,-0.05l-4,0.88a0.25,0.25 0 0 0 -0.15,0.42z"/>
   <path id="svg_105" d="m485.060001,394.369997l1.93,2.09a0.23,0.23 0 0 0 0.25,0.07l4.24,-1.16a0.25,0.25 0 0 0 0.1,-0.43l-2.15,-1.82a0.25,0.25 0 0 0 -0.22,-0.05l-4,0.89a0.25,0.25 0 0 0 -0.15,0.41z"/>
   <path id="svg_106" d="m490.070001,400.769997l1.93,2.09a0.25,0.25 0 0 0 0.25,0.07l4.24,-1.16a0.25,0.25 0 0 0 0.1,-0.43l-2.15,-1.82a0.25,0.25 0 0 0 -0.22,-0.05l-4,0.88a0.26,0.26 0 0 0 -0.15,0.42z"/>
   <path id="svg_107" d="m484.190001,402.359997l1.83,2a0.3,0.3 0 0 0 0.31,0.09l4.09,-1.11a0.32,0.32 0 0 0 0.12,-0.55l-2,-1.72a0.29,0.29 0 0 0 -0.27,-0.06l-3.88,0.85a0.31,0.31 0 0 0 -0.2,0.5z"/>
   <path id="svg_108" d="m502.630001,390.159997l2,2.2a0.19,0.19 0 0 0 0.19,0l4.4,-1.2a0.18,0.18 0 0 0 0.07,-0.32l-2.27,-1.92a0.22,0.22 0 0 0 -0.16,0l-4.16,0.92a0.19,0.19 0 0 0 -0.07,0.32z"/>
   <path id="svg_109" d="m501.790001,394.119997l1.93,2.09a0.25,0.25 0 0 0 0.25,0.07l4.24,-1.16a0.25,0.25 0 0 0 0.1,-0.43l-2.12,-1.81a0.25,0.25 0 0 0 -0.22,-0.05l-4,0.88a0.25,0.25 0 0 0 -0.18,0.41z"/>
   <path id="svg_110" d="m496.060001,395.699997l1.93,2.08a0.26,0.26 0 0 0 0.25,0.08l4.24,-1.16a0.26,0.26 0 0 0 0.1,-0.44l-2.16,-1.81a0.27,0.27 0 0 0 -0.21,-0.06l-4,0.89a0.25,0.25 0 0 0 -0.15,0.42z"/>
   <path id="svg_111" d="m472.860001,393.419997l2.13,2.26a0.26,0.26 0 0 0 0.24,0.07l4.57,-1.06a0.25,0.25 0 0 0 0.11,-0.43l-2.39,-2.26a0.26,0.26 0 0 0 -0.24,-0.06l-4.3,1.06a0.26,0.26 0 0 0 -0.12,0.42z"/>
   <path id="svg_112" d="m466.790001,394.879997l2,2.16a0.31,0.31 0 0 0 0.3,0.09l4.43,-1a0.32,0.32 0 0 0 0.14,-0.54l-2.29,-2.16a0.3,0.3 0 0 0 -0.29,-0.07l-4.16,1a0.32,0.32 0 0 0 -0.13,0.52z"/>
   <path id="svg_113" d="m460.220001,399.979997l1.51,2.42a0.31,0.31 0 0 0 0.34,0.14l5.11,-1.14a0.31,0.31 0 0 0 0.19,-0.49l-1.68,-2.34a0.34,0.34 0 0 0 -0.32,-0.13l-5,1.06a0.32,0.32 0 0 0 -0.15,0.48z"/>
   <path id="svg_114" d="m426.710001,400.879997l5.05,-1.17a0.29,0.29 0 0 1 0.3,0.11l0.89,1.17a0.29,0.29 0 0 1 -0.17,0.46l-5.23,1.22a0.29,0.29 0 0 1 -0.32,-0.14l-0.71,-1.22a0.29,0.29 0 0 1 0.19,-0.43z"/>
   <path id="svg_115" d="m433.660001,399.369997l5,-1.17a0.28,0.28 0 0 1 0.3,0.11l0.89,1.16a0.3,0.3 0 0 1 -0.17,0.47l-5.23,1.22a0.3,0.3 0 0 1 -0.32,-0.14l-0.71,-1.22a0.29,0.29 0 0 1 0.24,-0.43z"/>
   <path id="svg_116" d="m440.370001,397.879997l5,-1.16a0.28,0.28 0 0 1 0.3,0.1l0.89,1.17a0.29,0.29 0 0 1 -0.17,0.46l-5.23,1.22a0.29,0.29 0 0 1 -0.32,-0.14l-0.71,-1.21a0.3,0.3 0 0 1 0.24,-0.44z"/>
   <path id="svg_117" d="m446.900001,396.429997l5,-1.16a0.28,0.28 0 0 1 0.3,0.11l0.89,1.16a0.3,0.3 0 0 1 -0.17,0.47l-5.13,1.21a0.28,0.28 0 0 1 -0.32,-0.13l-0.71,-1.22a0.3,0.3 0 0 1 0.14,-0.44z"/>
   <path id="svg_118" d="m453.560001,394.959997l5,-1.16a0.33,0.33 0 0 1 0.32,0.12l0.86,1.13a0.32,0.32 0 0 1 -0.18,0.5l-5.19,1.21a0.32,0.32 0 0 1 -0.34,-0.15l-0.69,-1.18a0.32,0.32 0 0 1 0.22,-0.47z"/>
   <path id="svg_119" d="m460.020001,393.619997l5,-1.16a0.3,0.3 0 0 1 0.32,0.11l0.86,1.13a0.32,0.32 0 0 1 -0.18,0.5l-5.19,1.21a0.32,0.32 0 0 1 -0.34,-0.15l-0.7,-1.18a0.31,0.31 0 0 1 0.23,-0.46z"/>
   <path id="svg_120" d="m466.330001,392.299997l4.63,-1.12a0.3,0.3 0 0 1 0.3,0.09l0.9,0.94a0.31,0.31 0 0 1 -0.15,0.52l-4.58,1.15a0.29,0.29 0 0 1 -0.29,-0.08l-1,-1a0.32,0.32 0 0 1 0.19,-0.5z"/>
   <path id="svg_121" d="m472.470001,390.879997l4.77,-1.16a0.24,0.24 0 0 1 0.24,0.07l1,1.05a0.24,0.24 0 0 1 -0.12,0.41l-4.71,1.19a0.26,0.26 0 0 1 -0.24,-0.07l-1.05,-1.07a0.25,0.25 0 0 1 0.11,-0.42z"/>
   <path id="svg_122" d="m478.590001,389.449997l4.77,-1.16a0.22,0.22 0 0 1 0.24,0.07l1,1a0.26,0.26 0 0 1 -0.12,0.42l-4.69,1.23a0.27,0.27 0 0 1 -0.24,-0.07l-1.08,-1.06a0.25,0.25 0 0 1 0.12,-0.43z"/>
   <path id="svg_123" d="m484.710001,388.189997l4.77,-1.16a0.26,0.26 0 0 1 0.24,0.07l1,1a0.26,0.26 0 0 1 -0.12,0.42l-4.71,1.18a0.26,0.26 0 0 1 -0.25,-0.07l-1.05,-1.06a0.26,0.26 0 0 1 0.12,-0.38z"/>
   <path id="svg_124" d="m490.510001,386.799997l4.92,-1.19a0.18,0.18 0 0 1 0.18,0l1.09,1.15a0.18,0.18 0 0 1 -0.09,0.31l-4.82,1.27a0.17,0.17 0 0 1 -0.18,0l-1.16,-1.17a0.19,0.19 0 0 1 0.06,-0.37z"/>
   <path id="svg_125" d="m496.370001,385.549997l4.92,-1.2a0.21,0.21 0 0 1 0.18,0.06l1.1,1.15a0.19,0.19 0 0 1 -0.09,0.31l-4.86,1.22a0.18,0.18 0 0 1 -0.18,0l-1.16,-1.21a0.19,0.19 0 0 1 0.09,-0.33z"/>
   <path id="svg_126" d="m502.220001,384.209997l4.54,-1a0.19,0.19 0 0 1 0.19,0.07l0.88,1.08a0.18,0.18 0 0 1 -0.1,0.29l-4.27,1.13a0.17,0.17 0 0 1 -0.18,-0.05l-1.16,-1.17a0.18,0.18 0 0 1 0.1,-0.35z"/>
   <path id="svg_127" d="m507.790001,382.929997l4.55,-1a0.18,0.18 0 0 1 0.19,0.06l0.88,1.08a0.19,0.19 0 0 1 -0.1,0.3l-4.27,1.13a0.22,0.22 0 0 1 -0.18,0l-1.16,-1.18a0.19,0.19 0 0 1 0.09,-0.39z"/>
   <path id="svg_128" d="m430.250001,406.879997l1.68,2.39a0.29,0.29 0 0 0 0.31,0.12l8.75,-2a0.29,0.29 0 0 0 0.16,-0.46l-1.85,-2.45a0.3,0.3 0 0 0 -0.31,-0.1l-8.56,2.09a0.31,0.31 0 0 0 -0.18,0.41z"/>
   <path id="svg_129" d="m432.900001,410.109997l1.68,2.66a0.28,0.28 0 0 0 0.31,0.13l10.57,-2.51a0.29,0.29 0 0 0 0.16,-0.47l-2.09,-2.59a0.29,0.29 0 0 0 -0.3,-0.1l-10.15,2.44a0.29,0.29 0 0 0 -0.18,0.44z"/>
   <path id="svg_130" d="m435.290001,413.629997l2,2.89a0.29,0.29 0 0 0 0.31,0.12l14,-3.46a0.3,0.3 0 0 0 0.17,-0.47l-2.26,-2.89a0.29,0.29 0 0 0 -0.3,-0.11l-13.84,3.47a0.29,0.29 0 0 0 -0.08,0.45z"/>
   <path id="svg_131" d="m467.340001,410.469997l2.56,3.09a0.32,0.32 0 0 0 0.32,0.1l30.8,-7.69a0.3,0.3 0 0 0 0.14,-0.52l-3.14,-3.13a0.3,0.3 0 0 0 -0.3,-0.08l-30.22,7.73a0.31,0.31 0 0 0 -0.16,0.5z"/>
   <path id="svg_132" d="m499.140001,402.499997l3,3a0.26,0.26 0 0 0 0.25,0.07l6.31,-1.69a0.25,0.25 0 0 0 0.11,-0.42l-3.13,-3.07a0.23,0.23 0 0 0 -0.24,-0.06l-6.2,1.71a0.25,0.25 0 0 0 -0.1,0.46z"/>
   <path id="svg_133" d="m514.390001,400.589997l1.37,1.46a0.18,0.18 0 0 0 0.18,0.05l4.68,-1.26a0.18,0.18 0 0 0 0.08,-0.31l-1.67,-1.57a0.19,0.19 0 0 0 -0.18,0l-4.38,1.37a0.18,0.18 0 0 0 -0.08,0.26z"/>
   <path id="svg_134" d="m518.370001,397.479997l1.64,1.72a0.17,0.17 0 0 0 0.19,0.05l4.29,-1.49a0.18,0.18 0 0 0 0.07,-0.31l-1.6,-1.45a0.2,0.2 0 0 0 -0.18,0l-4.33,1.21a0.19,0.19 0 0 0 -0.08,0.27z"/>
   <path id="svg_135" d="m521.530001,400.459997l-1.18,-1a0.19,0.19 0 0 1 0.06,-0.32l4.27,-1.48a0.18,0.18 0 0 1 0.2,0l1.33,1.29a0.19,0.19 0 0 1 -0.08,0.32l-4.44,1.15a0.2,0.2 0 0 1 -0.16,0.04z"/>
   <path id="svg_136" d="m525.910001,397.819997c0.37,0.35 1,1.06 1.27,1.3a0.19,0.19 0 0 0 0.18,0.05l4.45,-1.21a0.19,0.19 0 0 0 0.08,-0.32l-1.58,-1.42a0.17,0.17 0 0 0 -0.18,0l-4.14,1.33a0.18,0.18 0 0 0 -0.08,0.27z"/>
   <path id="svg_137" d="m513.420001,394.999997l2.39,2.3a0.16,0.16 0 0 0 0.17,0.05l11.49,-3a0.18,0.18 0 0 0 0.07,-0.32l-2.75,-2.34a0.17,0.17 0 0 0 -0.17,0l-11.08,3a0.18,0.18 0 0 0 -0.12,0.31z"/>
   <path id="svg_138" d="m512.640001,391.459997l2.46,2.19a0.21,0.21 0 0 0 0.17,0l8.64,-2a0.19,0.19 0 0 0 0.08,-0.33l-2.83,-2.37a0.21,0.21 0 0 0 -0.17,0l-8.27,2.23a0.19,0.19 0 0 0 -0.08,0.28z"/>
   <path id="svg_139" d="m513.430001,387.689997l2.33,2.08a0.18,0.18 0 0 0 0.17,0l4.43,-1a0.2,0.2 0 0 0 0.09,-0.33l-2.76,-2.38a0.19,0.19 0 0 0 -0.18,0l-4,1.28a0.19,0.19 0 0 0 -0.08,0.35z"/>
   <path id="svg_140" d="m507.360001,385.619997l2.26,2.05a0.2,0.2 0 0 0 0.17,0l7,-1.67a0.19,0.19 0 0 0 0.08,-0.32l-2.69,-2.25a0.21,0.21 0 0 0 -0.17,0l-6.6,1.87a0.19,0.19 0 0 0 -0.05,0.32z"/>
  </g>
  <path id="svg_141" fill="#464a5f" d="m428.030001,402.539997l1.53,2.46a0.3,0.3 0 0 0 0.31,0.13l5.17,-1.15a0.3,0.3 0 0 0 0.17,-0.46l-1.71,-2.38a0.31,0.31 0 0 0 -0.3,-0.12l-5,1.07a0.3,0.3 0 0 0 -0.17,0.45z"/>
  <path id="svg_142" fill="#464a5f" d="m434.790001,401.119997l1.52,2.46a0.3,0.3 0 0 0 0.32,0.13l5.16,-1.15a0.29,0.29 0 0 0 0.17,-0.46l-1.7,-2.38a0.29,0.29 0 0 0 -0.3,-0.11l-5,1.07a0.29,0.29 0 0 0 -0.17,0.44z"/>
  <path id="svg_143" fill="#464a5f" d="m441.330001,399.699997l1.53,2.46a0.28,0.28 0 0 0 0.31,0.13l5.17,-1.15a0.29,0.29 0 0 0 0.17,-0.45l-1.72,-2.39a0.29,0.29 0 0 0 -0.3,-0.11l-5,1.07a0.29,0.29 0 0 0 -0.16,0.44z"/>
  <path id="svg_144" fill="#464a5f" d="m447.790001,398.299997l1.51,2.43a0.31,0.31 0 0 0 0.34,0.14l5.12,-1.14a0.32,0.32 0 0 0 0.18,-0.49l-1.7,-2.36a0.31,0.31 0 0 0 -0.32,-0.13l-5,1.06a0.32,0.32 0 0 0 -0.13,0.49z"/>
  <path id="svg_145" fill="#464a5f" d="m447.260001,402.059997l1.53,2.47a0.31,0.31 0 0 0 0.31,0.13l5.16,-1.15a0.29,0.29 0 0 0 0.17,-0.46l-1.7,-2.38a0.3,0.3 0 0 0 -0.3,-0.12l-5,1.07a0.29,0.29 0 0 0 -0.17,0.44z"/>
  <path id="svg_146" fill="#464a5f" d="m440.570001,403.479997l1.53,2.46a0.32,0.32 0 0 0 0.32,0.14l5.16,-1.15a0.29,0.29 0 0 0 0.17,-0.46l-1.71,-2.38a0.29,0.29 0 0 0 -0.3,-0.12l-5,1.07a0.3,0.3 0 0 0 -0.17,0.44z"/>
  <path id="svg_147" fill="#464a5f" d="m444.920001,406.509997l1.53,2.46a0.29,0.29 0 0 0 0.32,0.13l5.16,-1.15a0.29,0.29 0 0 0 0.17,-0.46l-1.71,-2.38a0.28,0.28 0 0 0 -0.3,-0.11l-5,1.06a0.3,0.3 0 0 0 -0.17,0.45z"/>
  <path id="svg_148" fill="#464a5f" d="m451.070001,409.149997l1.53,2.47a0.29,0.29 0 0 0 0.31,0.13l5.16,-1.15a0.3,0.3 0 0 0 0.18,-0.46l-1.71,-2.38a0.3,0.3 0 0 0 -0.3,-0.12l-5,1.07a0.29,0.29 0 0 0 -0.17,0.44z"/>
  <path id="svg_149" fill="#464a5f" d="m452.140001,413.439997l2.47,3.09a0.29,0.29 0 0 0 0.3,0.1l5.2,-1.35a0.3,0.3 0 0 0 0.16,-0.47l-2.56,-3.12a0.29,0.29 0 0 0 -0.3,-0.1l-5.12,1.38a0.3,0.3 0 0 0 -0.15,0.47z"/>
  <path id="svg_150" fill="#464a5f" d="m458.940001,411.729997l2.54,3.19a0.29,0.29 0 0 0 0.3,0.1l6.79,-1.88a0.3,0.3 0 0 0 0.15,-0.47l-2.56,-3.12a0.29,0.29 0 0 0 -0.3,-0.1l-6.76,1.82a0.29,0.29 0 0 0 -0.16,0.46z"/>
  <path id="svg_151" fill="#464a5f" d="m445.490001,415.079997l2.47,3.09a0.29,0.29 0 0 0 0.3,0.1l5.2,-1.35a0.3,0.3 0 0 0 0.16,-0.47l-2.56,-3.12a0.29,0.29 0 0 0 -0.3,-0.1l-5.12,1.38a0.3,0.3 0 0 0 -0.15,0.47z"/>
  <path id="svg_152" fill="#464a5f" d="m438.460001,416.879997l2.47,3.1a0.29,0.29 0 0 0 0.3,0.1l5.2,-1.35a0.3,0.3 0 0 0 0.16,-0.47l-2.55,-3.12a0.31,0.31 0 0 0 -0.31,-0.1l-5.12,1.38a0.29,0.29 0 0 0 -0.15,0.46z"/>
  <path id="svg_153" fill="#464a5f" d="m454.240001,396.789997l1.5,2.43a0.32,0.32 0 0 0 0.34,0.14l5.12,-1.14a0.31,0.31 0 0 0 0.18,-0.49l-1.68,-2.35a0.31,0.31 0 0 0 -0.32,-0.12l-4.94,1.06a0.31,0.31 0 0 0 -0.2,0.47z"/>
  <path id="svg_154" fill="#464a5f" d="m453.790001,400.569997l1.5,2.43a0.32,0.32 0 0 0 0.34,0.14l5.12,-1.14a0.31,0.31 0 0 0 0.18,-0.49l-1.68,-2.34a0.31,0.31 0 0 0 -0.32,-0.13l-4.94,1.06a0.31,0.31 0 0 0 -0.2,0.47z"/>
  <path id="svg_155" fill="#464a5f" d="m460.510001,395.369997l1.5,2.43a0.32,0.32 0 0 0 0.34,0.14l5.12,-1.14a0.31,0.31 0 0 0 0.18,-0.49l-1.68,-2.35a0.32,0.32 0 0 0 -0.32,-0.12l-4.94,1.04a0.31,0.31 0 0 0 -0.2,0.49z"/>
  <path id="svg_156" fill="#464a5f" d="m478.850001,391.369997l2.12,2.26a0.28,0.28 0 0 0 0.24,0.07l4.57,-1.06a0.25,0.25 0 0 0 0.12,-0.43l-2.39,-2.26a0.27,0.27 0 0 0 -0.24,-0.06l-4.3,1.06a0.25,0.25 0 0 0 -0.12,0.42z"/>
  <path id="svg_157" fill="#464a5f" d="m484.710001,390.019997l2.13,2.25a0.24,0.24 0 0 0 0.24,0.08l4.57,-1.06a0.25,0.25 0 0 0 0.14,-0.41l-2.39,-2.26a0.26,0.26 0 0 0 -0.24,-0.06l-4.3,1.06a0.26,0.26 0 0 0 -0.15,0.4z"/>
  <path id="svg_158" fill="#464a5f" d="m478.970001,395.029997l2.13,2.26a0.26,0.26 0 0 0 0.24,0.07l4.57,-1.06a0.25,0.25 0 0 0 0.12,-0.43l-2.4,-2.26a0.24,0.24 0 0 0 -0.23,-0.06l-4.3,1.06a0.26,0.26 0 0 0 -0.13,0.42z"/>
  <path id="svg_159" fill="#464a5f" d="m472.960001,396.429997l2,2.15a0.31,0.31 0 0 0 0.3,0.09l4.43,-1a0.31,0.31 0 0 0 0.14,-0.53l-2.29,-2.16a0.28,0.28 0 0 0 -0.29,-0.08l-4.16,1a0.31,0.31 0 0 0 -0.13,0.53z"/>
  <path id="svg_160" fill="#464a5f" d="m477.530001,403.229997l2,2.16a0.31,0.31 0 0 0 0.3,0.09l4.43,-1a0.32,0.32 0 0 0 0.14,-0.54l-2.29,-2.16a0.3,0.3 0 0 0 -0.29,-0.07l-4.16,1a0.32,0.32 0 0 0 -0.13,0.52z"/>
  <path id="svg_161" fill="#464a5f" d="m471.260001,404.649997l2,2.16a0.33,0.33 0 0 0 0.3,0.09l4.42,-1a0.31,0.31 0 0 0 0.15,-0.53l-2.29,-2.16a0.34,0.34 0 0 0 -0.29,-0.08l-4.17,1a0.32,0.32 0 0 0 -0.12,0.52z"/>
  <path id="svg_162" fill="#464a5f" d="m464.890001,406.229997l2,2.16a0.34,0.34 0 0 0 0.3,0.09l4.43,-1a0.31,0.31 0 0 0 0.17,-0.6l-2.29,-2.16a0.3,0.3 0 0 0 -0.29,-0.08l-4.16,1a0.31,0.31 0 0 0 -0.16,0.59z"/>
  <path id="svg_163" fill="#464a5f" d="m458.160001,407.559997l2.06,2.19a0.29,0.29 0 0 0 0.28,0.08l4.47,-1a0.3,0.3 0 0 0 0.14,-0.5l-2.33,-2.2a0.32,0.32 0 0 0 -0.27,-0.07l-4.21,1a0.29,0.29 0 0 0 -0.14,0.5z"/>
  <path id="svg_164" fill="#464a5f" d="m471.200001,400.709997l2,2.16a0.3,0.3 0 0 0 0.3,0.09l4.42,-1a0.32,0.32 0 0 0 0.15,-0.54l-2.28,-2.18a0.31,0.31 0 0 0 -0.29,-0.07l-4.17,1a0.31,0.31 0 0 0 -0.13,0.54z"/>
  <path id="svg_165" fill="#464a5f" d="m465.080001,402.129997l2,2.16a0.33,0.33 0 0 0 0.3,0.09l4.43,-1a0.31,0.31 0 0 0 0.14,-0.53l-2.29,-2.16a0.33,0.33 0 0 0 -0.29,-0.08l-4.16,1a0.32,0.32 0 0 0 -0.13,0.52z"/>
  <path id="svg_166" fill="#464a5f" d="m458.530001,403.519997l2,2.15a0.31,0.31 0 0 0 0.3,0.1l4.42,-1a0.31,0.31 0 0 0 0.15,-0.53l-2.29,-2.16a0.29,0.29 0 0 0 -0.29,-0.08l-4.17,1a0.31,0.31 0 0 0 -0.12,0.52z"/>
  <path id="svg_167" fill="#464a5f" d="m451.790001,405.069997l2.06,2.19a0.31,0.31 0 0 0 0.29,0.08l4.47,-1a0.3,0.3 0 0 0 0.13,-0.5l-2.32,-2.19a0.3,0.3 0 0 0 -0.27,-0.08l-4.21,1a0.3,0.3 0 0 0 -0.15,0.5z"/>
  <path id="svg_168" fill="#464a5f" d="m477.500001,399.229997l2,2.16a0.33,0.33 0 0 0 0.3,0.09l4.42,-1a0.31,0.31 0 0 0 0.15,-0.53l-2.29,-2.16a0.34,0.34 0 0 0 -0.29,-0.08l-4.17,1a0.32,0.32 0 0 0 -0.12,0.52z"/>
  <path id="svg_169" fill="#464a5f" d="m466.790001,397.999997l2,2.16a0.3,0.3 0 0 0 0.3,0.09l4.42,-1a0.31,0.31 0 0 0 0.14,-0.53l-2.28,-2.16a0.34,0.34 0 0 0 -0.29,-0.08l-4.17,1a0.31,0.31 0 0 0 -0.12,0.52z"/>
  <path id="svg_170" fill="#464a5f" d="m490.370001,388.579997l2.23,2.37a0.19,0.19 0 0 0 0.18,0.05l4.72,-1.09a0.19,0.19 0 0 0 0.09,-0.32l-2.51,-2.37a0.2,0.2 0 0 0 -0.18,0l-4.44,1.1a0.18,0.18 0 0 0 -0.09,0.26z"/>
  <path id="svg_171" fill="#464a5f" d="m496.070001,387.319997l2.23,2.37a0.24,0.24 0 0 0 0.18,0.05l4.72,-1.09a0.19,0.19 0 0 0 0.09,-0.32l-2.5,-2.37a0.18,0.18 0 0 0 -0.17,-0.05l-4.45,1.1a0.19,0.19 0 0 0 -0.1,0.31z"/>
  <path id="svg_172" fill="#464a5f" d="m501.940001,385.969997l2,2.2a0.19,0.19 0 0 0 0.19,0l4.4,-1.2a0.19,0.19 0 0 0 0.07,-0.32l-2.27,-1.92a0.2,0.2 0 0 0 -0.16,0l-4.17,0.92a0.18,0.18 0 0 0 -0.06,0.32z"/>
  <path id="svg_173" fill="#464a5f" d="m508.080001,388.019997l2,2.2a0.17,0.17 0 0 0 0.18,0.05l4.4,-1.2a0.18,0.18 0 0 0 0.07,-0.32l-2.23,-1.87a0.18,0.18 0 0 0 -0.16,0l-4.16,0.92a0.19,0.19 0 0 0 -0.1,0.22z"/>
  <path id="svg_174" fill="#464a5f" d="m507.340001,392.009997l1.93,2.09a0.28,0.28 0 0 0 0.25,0.07l4.24,-1.16a0.25,0.25 0 0 0 0.1,-0.44l-2.15,-1.81a0.29,0.29 0 0 0 -0.22,-0.06l-4,0.89a0.26,0.26 0 0 0 -0.15,0.42z"/>
  <path id="svg_175" fill="#464a5f" d="m502.330001,397.079997l1.93,2.09a0.23,0.23 0 0 0 0.25,0.07l4.28,-1.16a0.25,0.25 0 0 0 0.1,-0.43l-2.19,-1.77a0.25,0.25 0 0 0 -0.22,-0.05l-4,0.89a0.25,0.25 0 0 0 -0.15,0.36z"/>
  <path id="svg_176" fill="#464a5f" d="m496.310001,398.659997l1.93,2.09a0.28,0.28 0 0 0 0.25,0.07l4.24,-1.16a0.25,0.25 0 0 0 0.1,-0.44l-2.15,-1.81a0.29,0.29 0 0 0 -0.22,-0.06l-4,0.89a0.26,0.26 0 0 0 -0.15,0.42z"/>
  <path id="svg_177" fill="#464a5f" d="m508.000001,395.599997l1.93,2.09a0.24,0.24 0 0 0 0.25,0.07l4.25,-1.16a0.25,0.25 0 0 0 0.09,-0.43l-2.15,-1.82a0.25,0.25 0 0 0 -0.22,-0.05l-4,0.88a0.26,0.26 0 0 0 -0.15,0.42z"/>
  <path id="svg_178" fill="#464a5f" d="m507.020001,400.109997l2.91,2.61a0.24,0.24 0 0 0 0.24,0.05l4.21,-1.19a0.25,0.25 0 0 0 0.1,-0.43l-3.14,-2.75a0.23,0.23 0 0 0 -0.24,0l-4,1.33a0.25,0.25 0 0 0 -0.08,0.38z"/>
  <path id="svg_179" fill="#464a5f" d="m496.790001,390.879997l2,2.2a0.19,0.19 0 0 0 0.18,0.06l4.4,-1.2a0.19,0.19 0 0 0 0.07,-0.33l-2.27,-1.91a0.16,0.16 0 0 0 -0.16,0l-4.16,0.91a0.19,0.19 0 0 0 -0.06,0.27z"/>
  <path id="svg_180" fill="#464a5f" d="m491.140001,392.259997l1.93,2.09a0.26,0.26 0 0 0 0.25,0.07l4.25,-1.16a0.25,0.25 0 0 0 0.09,-0.43l-2.15,-1.82a0.25,0.25 0 0 0 -0.22,-0.05l-4,0.88a0.26,0.26 0 0 0 -0.15,0.42z"/>
  <path id="svg_181" fill="#464a5f" d="m489.980001,396.299997l1.93,2.08a0.23,0.23 0 0 0 0.25,0.07l4.24,-1.15a0.26,0.26 0 0 0 0.1,-0.44l-2.16,-1.82a0.25,0.25 0 0 0 -0.22,-0.05l-4,0.89a0.25,0.25 0 0 0 -0.14,0.42z"/>
  <path id="svg_182" fill="#464a5f" d="m483.990001,397.749997l1.93,2.08a0.23,0.23 0 0 0 0.25,0.07l4.24,-1.15a0.26,0.26 0 0 0 0.1,-0.44l-2.16,-1.82a0.23,0.23 0 0 0 -0.21,-0.05l-4,0.89a0.25,0.25 0 0 0 -0.15,0.42z"/>
  <path id="svg_183" fill="#464a5f" d="m485.060001,393.619997l1.93,2.08a0.23,0.23 0 0 0 0.25,0.07l4.24,-1.15a0.26,0.26 0 0 0 0.1,-0.44l-2.15,-1.81a0.29,0.29 0 0 0 -0.22,-0.06l-4,0.89a0.25,0.25 0 0 0 -0.15,0.42z"/>
  <path id="svg_184" fill="#464a5f" d="m490.070001,400.009997l1.93,2.09a0.23,0.23 0 0 0 0.25,0.07l4.24,-1.15a0.25,0.25 0 0 0 0.1,-0.44l-2.15,-1.82a0.25,0.25 0 0 0 -0.22,-0.05l-4,0.89a0.25,0.25 0 0 0 -0.15,0.41z"/>
  <path id="svg_185" fill="#464a5f" d="m484.190001,401.609997l1.83,2a0.33,0.33 0 0 0 0.31,0.09l4.09,-1.12a0.31,0.31 0 0 0 0.12,-0.54l-2,-1.72a0.29,0.29 0 0 0 -0.27,-0.07l-3.88,0.86a0.31,0.31 0 0 0 -0.2,0.5z"/>
  <path id="svg_186" fill="#464a5f" d="m502.630001,389.399997l2,2.2a0.2,0.2 0 0 0 0.19,0.06l4.4,-1.2a0.19,0.19 0 0 0 0.07,-0.33l-2.27,-1.91a0.16,0.16 0 0 0 -0.16,0l-4.16,0.92a0.18,0.18 0 0 0 -0.07,0.26z"/>
  <path id="svg_187" fill="#464a5f" d="m501.790001,393.359997l1.93,2.09a0.23,0.23 0 0 0 0.25,0.07l4.24,-1.15a0.26,0.26 0 0 0 0.1,-0.44l-2.16,-1.82a0.25,0.25 0 0 0 -0.22,-0.05l-4,0.89a0.24,0.24 0 0 0 -0.14,0.41z"/>
  <path id="svg_188" fill="#464a5f" d="m496.060001,394.939997l1.93,2.09a0.25,0.25 0 0 0 0.25,0.07l4.24,-1.16a0.25,0.25 0 0 0 0.1,-0.43l-2.16,-1.82a0.23,0.23 0 0 0 -0.21,-0.05l-4,0.88a0.26,0.26 0 0 0 -0.15,0.42z"/>
  <path id="svg_189" fill="#464a5f" d="m472.860001,392.659997l2.13,2.22a0.24,0.24 0 0 0 0.24,0.07l4.57,-1.05a0.25,0.25 0 0 0 0.11,-0.43l-2.39,-2.26a0.27,0.27 0 0 0 -0.24,-0.07l-4.3,1.07a0.25,0.25 0 0 0 -0.12,0.45z"/>
  <path id="svg_190" fill="#464a5f" d="m466.790001,394.159997l2,2.15a0.29,0.29 0 0 0 0.3,0.09l4.43,-1a0.31,0.31 0 0 0 0.14,-0.53l-2.29,-2.16a0.28,0.28 0 0 0 -0.29,-0.08l-4.16,1a0.31,0.31 0 0 0 -0.13,0.53z"/>
  <path id="svg_191" fill="#464a5f" d="m460.220001,399.219997l1.51,2.43a0.32,0.32 0 0 0 0.34,0.14l5.11,-1.14a0.32,0.32 0 0 0 0.19,-0.49l-1.68,-2.35a0.31,0.31 0 0 0 -0.32,-0.12l-5,1.06a0.31,0.31 0 0 0 -0.15,0.47z"/>
  <path id="svg_192" fill="#464a5f" d="m426.710001,400.119997l5.05,-1.17a0.31,0.31 0 0 1 0.3,0.11l0.89,1.17a0.29,0.29 0 0 1 -0.17,0.46l-5.23,1.19a0.29,0.29 0 0 1 -0.32,-0.14l-0.71,-1.21a0.3,0.3 0 0 1 0.19,-0.41z"/>
  <path id="svg_193" fill="#464a5f" d="m433.660001,398.609997l5,-1.17a0.31,0.31 0 0 1 0.3,0.11l0.89,1.17a0.29,0.29 0 0 1 -0.17,0.46l-5.23,1.22a0.29,0.29 0 0 1 -0.32,-0.14l-0.71,-1.22a0.29,0.29 0 0 1 0.24,-0.43z"/>
  <path id="svg_194" fill="#464a5f" d="m440.370001,397.169997l5,-1.17a0.29,0.29 0 0 1 0.3,0.11l0.89,1.16a0.3,0.3 0 0 1 -0.17,0.47l-5.23,1.22a0.3,0.3 0 0 1 -0.32,-0.14l-0.71,-1.22a0.29,0.29 0 0 1 0.24,-0.43z"/>
  <path id="svg_195" fill="#464a5f" d="m446.900001,395.679997l5,-1.17a0.29,0.29 0 0 1 0.3,0.11l0.89,1.17a0.3,0.3 0 0 1 -0.17,0.46l-5.13,1.22a0.29,0.29 0 0 1 -0.32,-0.14l-0.71,-1.22a0.29,0.29 0 0 1 0.14,-0.43z"/>
  <path id="svg_196" fill="#464a5f" d="m453.560001,394.209997l5,-1.16a0.33,0.33 0 0 1 0.32,0.11l0.86,1.14a0.31,0.31 0 0 1 -0.18,0.49l-5.19,1.21a0.32,0.32 0 0 1 -0.34,-0.15l-0.69,-1.18a0.32,0.32 0 0 1 0.22,-0.46z"/>
  <path id="svg_197" fill="#464a5f" d="m460.020001,392.879997l5,-1.16a0.31,0.31 0 0 1 0.32,0.12l0.86,1.13a0.31,0.31 0 0 1 -0.18,0.49l-5.19,1.21a0.32,0.32 0 0 1 -0.34,-0.15l-0.68,-1.18a0.31,0.31 0 0 1 0.21,-0.46z"/>
  <path id="svg_198" fill="#464a5f" d="m466.330001,391.549997l4.63,-1.13a0.32,0.32 0 0 1 0.3,0.09l0.9,0.95a0.3,0.3 0 0 1 -0.15,0.51l-4.58,1.15a0.29,0.29 0 0 1 -0.29,-0.08l-1,-1a0.31,0.31 0 0 1 0.19,-0.49z"/>
  <path id="svg_199" fill="#464a5f" d="m472.470001,390.129997l4.77,-1.16a0.27,0.27 0 0 1 0.24,0.07l1,1a0.25,0.25 0 0 1 -0.12,0.42l-4.71,1.18a0.24,0.24 0 0 1 -0.24,-0.07l-1.05,-1.07a0.25,0.25 0 0 1 0.11,-0.37z"/>
  <path id="svg_200" fill="#464a5f" d="m478.590001,388.689997l4.77,-1.16a0.26,0.26 0 0 1 0.24,0.07l1,1a0.26,0.26 0 0 1 -0.12,0.42l-4.69,1.23a0.24,0.24 0 0 1 -0.24,-0.07l-1.05,-1.07a0.25,0.25 0 0 1 0.09,-0.42z"/>
  <path id="svg_201" fill="#464a5f" d="m484.710001,387.439997l4.77,-1.16a0.24,0.24 0 0 1 0.24,0.07l1,1a0.26,0.26 0 0 1 -0.12,0.42l-4.71,1.19a0.29,0.29 0 0 1 -0.25,-0.07l-1.05,-1.01a0.25,0.25 0 0 1 0.12,-0.44z"/>
  <path id="svg_202" fill="#464a5f" d="m490.510001,386.049997l4.92,-1.2a0.18,0.18 0 0 1 0.18,0l1.09,1.16a0.19,0.19 0 0 1 -0.09,0.31l-4.82,1.27a0.23,0.23 0 0 1 -0.18,0l-1.16,-1.18a0.19,0.19 0 0 1 0.06,-0.36z"/>
  <path id="svg_203" fill="#464a5f" d="m496.370001,384.789997l4.92,-1.19a0.18,0.18 0 0 1 0.18,0l1.1,1.15a0.18,0.18 0 0 1 -0.09,0.31l-4.86,1.22a0.18,0.18 0 0 1 -0.18,-0.05l-1.16,-1.17a0.19,0.19 0 0 1 0.09,-0.27z"/>
  <path id="svg_204" fill="#464a5f" d="m502.220001,383.449997l4.54,-1a0.17,0.17 0 0 1 0.19,0.06l0.88,1.08a0.19,0.19 0 0 1 -0.1,0.3l-4.27,1.13a0.23,0.23 0 0 1 -0.18,-0.05l-1.16,-1.18a0.18,0.18 0 0 1 0.1,-0.34z"/>
  <path id="svg_205" fill="#464a5f" d="m507.790001,382.169997l4.55,-1a0.2,0.2 0 0 1 0.19,0.06l0.88,1.08a0.19,0.19 0 0 1 -0.1,0.3l-4.27,1.13a0.17,0.17 0 0 1 -0.18,-0.05l-1.16,-1.17a0.19,0.19 0 0 1 0.09,-0.35z"/>
  <path id="svg_206" fill="#464a5f" d="m430.250001,406.139997l1.68,2.39a0.29,0.29 0 0 0 0.31,0.12l8.75,-2a0.29,0.29 0 0 0 0.16,-0.46l-1.85,-2.44a0.29,0.29 0 0 0 -0.31,-0.11l-8.56,2.1a0.3,0.3 0 0 0 -0.18,0.4z"/>
  <path id="svg_207" fill="#464a5f" d="m432.900001,409.349997l1.68,2.67a0.29,0.29 0 0 0 0.31,0.13l10.57,-2.52a0.29,0.29 0 0 0 0.16,-0.47l-2.09,-2.59a0.31,0.31 0 0 0 -0.3,-0.1l-10.15,2.41a0.29,0.29 0 0 0 -0.18,0.47z"/>
  <path id="svg_208" fill="#464a5f" d="m435.290001,412.879997l2,2.89a0.29,0.29 0 0 0 0.31,0.11l14,-3.46a0.29,0.29 0 0 0 0.17,-0.46l-2.26,-2.9a0.29,0.29 0 0 0 -0.3,-0.1l-13.84,3.46a0.3,0.3 0 0 0 -0.08,0.46z"/>
  <path id="svg_209" fill="#464a5f" d="m467.340001,409.719997l2.56,3.08a0.32,0.32 0 0 0 0.32,0.1l30.8,-7.68a0.31,0.31 0 0 0 0.14,-0.53l-3.14,-3.12a0.33,0.33 0 0 0 -0.3,-0.09l-30.22,7.73a0.32,0.32 0 0 0 -0.16,0.51z"/>
  <path id="svg_210" fill="#464a5f" d="m499.140001,401.749997l3,3a0.26,0.26 0 0 0 0.25,0.06l6.31,-1.69a0.25,0.25 0 0 0 0.11,-0.42l-3.13,-3.06a0.24,0.24 0 0 0 -0.24,-0.07l-6.2,1.72a0.25,0.25 0 0 0 -0.1,0.46z"/>
  <path id="svg_211" fill="#464a5f" d="m514.390001,399.879997l1.37,1.45a0.18,0.18 0 0 0 0.18,0l4.68,-1.25a0.19,0.19 0 0 0 0.08,-0.32l-1.67,-1.56a0.17,0.17 0 0 0 -0.18,-0.05l-4.38,1.37a0.18,0.18 0 0 0 -0.08,0.36z"/>
  <path id="svg_212" fill="#464a5f" d="m518.370001,396.729997l1.64,1.72a0.17,0.17 0 0 0 0.19,0l4.29,-1.48a0.19,0.19 0 0 0 0.07,-0.32l-1.6,-1.44a0.2,0.2 0 0 0 -0.18,-0.05l-4.33,1.22a0.19,0.19 0 0 0 -0.08,0.35z"/>
  <path id="svg_213" fill="#464a5f" d="m521.530001,399.699997l-1.18,-0.95a0.19,0.19 0 0 1 0.06,-0.33l4.27,-1.48a0.2,0.2 0 0 1 0.2,0l1.33,1.3a0.18,0.18 0 0 1 -0.08,0.31l-4.44,1.15a0.2,0.2 0 0 1 -0.16,0z"/>
  <path id="svg_214" fill="#464a5f" d="m525.910001,397.059997c0.37,0.36 1,1.06 1.27,1.3a0.17,0.17 0 0 0 0.18,0l4.45,-1.21a0.18,0.18 0 0 0 0.08,-0.31l-1.58,-1.43a0.2,0.2 0 0 0 -0.18,0l-4.14,1.33a0.19,0.19 0 0 0 -0.08,0.32z"/>
  <path id="svg_215" fill="#464a5f" d="m513.420001,394.249997l2.39,2.3a0.17,0.17 0 0 0 0.17,0l11.49,-3a0.19,0.19 0 0 0 0.07,-0.33l-2.79,-2.3a0.18,0.18 0 0 0 -0.17,0l-11.08,3a0.19,0.19 0 0 0 -0.08,0.33z"/>
  <path id="svg_216" fill="#464a5f" d="m512.640001,390.699997l2.46,2.19a0.18,0.18 0 0 0 0.17,0l8.64,-2a0.19,0.19 0 0 0 0.08,-0.33l-2.83,-2.36a0.18,0.18 0 0 0 -0.17,0l-8.27,2.22a0.19,0.19 0 0 0 -0.08,0.28z"/>
  <path id="svg_217" fill="#464a5f" d="m513.430001,386.929997l2.33,2.08a0.22,0.22 0 0 0 0.17,0.05l4.43,-1a0.19,0.19 0 0 0 0.09,-0.32l-2.76,-2.38a0.17,0.17 0 0 0 -0.18,0l-4,1.29a0.18,0.18 0 0 0 -0.08,0.28z"/>
  <path id="svg_218" fill="#464a5f" d="m507.360001,384.879997l2.26,2a0.17,0.17 0 0 0 0.17,0l7,-1.66a0.19,0.19 0 0 0 0.08,-0.33l-2.69,-2.25a0.17,0.17 0 0 0 -0.17,0l-6.6,1.86a0.19,0.19 0 0 0 -0.05,0.38z"/>
  <path id="svg_219" fill="#fbbebe" d="m446.390001,276.059997a198.8,198.8 0 0 0 -12.13,16a50.62,50.62 0 0 1 -4.91,6.55c-2.59,2.73 -5.83,4.78 -8.48,7.46c-3.07,3.11 -5.25,7 -7.39,10.79a79.07,79.07 0 0 0 -4,7.83a39.59,39.59 0 0 0 -1.75,25.37c0.81,3 2.43,6.38 5.49,7.09c2.4,0.56 4.8,-0.72 6.9,-2c2.26,-1.37 4.58,-2.87 5.91,-5.16a16.65,16.65 0 0 0 1.72,-6.31l2.63,-19.25a22.23,22.23 0 0 1 1.39,-6c1.51,-3.44 4.65,-5.89 7.94,-7.7s6.84,-3.16 10,-5.22c2.94,-1.92 5.47,-4.42 8.41,-6.34c3.61,-2.37 7.8,-3.84 11.09,-6.63s5.52,-7.63 3.5,-11.44a13.35,13.35 0 0 0 -3.61,-3.81l-6.43,-5.18c-1.37,-1.1 -4.2,-4.43 -5.93,-4.65s-4.35,2.4 -5.51,3.43a48.66,48.66 0 0 0 -4.84,5.17z"/>
  <path id="svg_220" fill="#1bb1dc" d="m424.440001,246.799997a21.2,21.2 0 0 1 4,1c1.31,0.53 2.51,1.33 3.83,1.83a45.9,45.9 0 0 0 5.21,1.24a7,7 0 0 1 4.41,2.8a13.3,13.3 0 0 0 -7.35,4.75a22.23,22.23 0 0 0 -3.07,6.07a68.25,68.25 0 0 0 -4,20.08c-0.06,1.2 0,2.58 0.9,3.37c-4.45,-3.61 -10.74,-3.5 -16.46,-3.24a4.1,4.1 0 0 1 -1.6,-0.13a3.58,3.58 0 0 1 -1.41,-1.16a14,14 0 0 1 -3,-6.72c-0.54,-3.53 0.28,-7.11 1,-10.61a54.67,54.67 0 0 0 1.3,-10.27c0.05,-3.52 -1.06,-6.36 -1.64,-9.71c-0.71,-4.05 3.81,-2.06 6.23,-1.59l11.65,2.29z"/>
  <g stroke="null" id="svg_221">
   <path stroke="null" id="svg_49" fill="#e53c5f" d="m528.185643,144.23436a16.179157,16.179157 0 0 1 16.117088,16.137778l0,32.254866a16.096399,16.096399 0 0 1 -4.737886,11.379202a15.889504,15.889504 0 0 1 -11.379202,4.737886l-32.275556,0a16.179157,16.179157 0 0 1 -16.117088,-16.117088l0,-32.254866a16.179157,16.179157 0 0 1 16.117088,-16.137778l32.275556,0m0,-6.455111l-32.275556,0a22.634268,22.634268 0 0 0 -22.5722,22.592889l0,32.254866a22.634268,22.634268 0 0 0 22.5722,22.5722l32.275556,0a22.634268,22.634268 0 0 0 22.5722,-22.5722l0,-32.254866a22.634268,22.634268 0 0 0 -22.5722,-22.634268l0,0.041379z"/>
   <path stroke="null" id="svg_50" fill="#e53c5f" d="m533.006286,160.372138a4.841333,4.841333 0 1 1 4.841333,-4.841333a4.820644,4.820644 0 0 1 -4.841333,4.841333zm-20.958422,3.227556a12.910222,12.910222 0 1 1 -12.910222,12.889533a12.910222,12.910222 0 0 1 12.910222,-12.889533m0,-6.455111a19.365333,19.365333 0 1 0 19.365333,19.344644a19.344644,19.344644 0 0 0 -19.365333,-19.344644z"/>
  </g>
  <path stroke="null" id="svg_225" d="m635.973409,186.311169c1.831433,-0.848113 3.582992,-1.825876 5.125993,-2.70358l-46.233725,-0.402741l-6.341673,3.468365l-20.090559,-0.297891c2.517372,-1.579104 5.27506,-3.434126 7.319642,-4.827431l-7.272956,-4.683999l21.436177,0l4.361583,2.926595l47.203501,0l-5.855229,-2.920046c1.807003,-0.920217 4.481264,-2.148266 5.931956,-2.792149l15.875324,7.442268l-15.911433,7.557718l-5.548608,-2.767112l0.000006,0.000001z" stroke-opacity="null" stroke-width="null" fill="#7f7f7f"/>
 </g>
</svg>