<svg width="642" height="482" xmlns="http://www.w3.org/2000/svg">
 <title>buffer</title>
 <defs>
  <filter height="200%" width="200%" y="-50%" x="-50%" id="svg_45_blur">
   <feGaussianBlur stdDeviation="0" in="SourceGraphic"/>
  </filter>
 </defs>
 <g>
  <title>background</title>
  <rect x="-1" y="-1" width="644" height="484" id="canvas_background" fill="none"/>
 </g>
 <g>
  <title>Layer 1</title>
  <rect stroke="null" id="svg_47" height="197.999996" width="307.000032" y="60.000006" x="163.290006" stroke-opacity="null" stroke-width="0" fill="#ffffff"/>
  <path d="m464.72002,149.70706a33.38007,33.38007 0 0 1 -9.41043,2.60917a16.64655,16.64655 0 0 0 7.21873,-9.09733a32.80605,32.80605 0 0 1 -10.43671,3.98335a16.40303,16.40303 0 0 0 -28.38785,11.21946a16.8031,16.8031 0 0 0 0.41747,3.75721a46.53032,46.53032 0 0 1 -33.83233,-17.16838a16.45521,16.45521 0 0 0 5.11399,21.91708a15.88119,15.88119 0 0 1 -7.46225,-2.03515l0,0.19134a16.42042,16.42042 0 0 0 13.16765,16.10731a16.87268,16.87268 0 0 1 -4.31384,0.57402a16.54218,16.54218 0 0 1 -3.09622,-0.2957a16.42042,16.42042 0 0 0 15.34196,11.3934a32.82345,32.82345 0 0 1 -20.38637,6.95781a32.38858,32.38858 0 0 1 -3.91377,-0.24353a45.85194,45.85194 0 0 0 25.11768,7.42746c30.21427,0 46.73906,-25.0307 46.73906,-46.75645c0,-0.71317 0,-1.40896 0,-2.10474a33.41486,33.41486 0 0 0 8.12323,-8.43633z" fill="#55acee" id="svg_46" stroke="null"/>
  <g id="svg_221" stroke="null">
   <path d="m233.18564,137.23436a16.17916,16.17916 0 0 1 16.11709,16.13778l0,32.25486a16.0964,16.0964 0 0 1 -4.73789,11.37921a15.8895,15.8895 0 0 1 -11.3792,4.73788l-32.27555,0a16.17916,16.17916 0 0 1 -16.11709,-16.11709l0,-32.25486a16.17916,16.17916 0 0 1 16.11709,-16.13778l32.27555,0m0,-6.45511l-32.27555,0a22.63427,22.63427 0 0 0 -22.5722,22.59289l0,32.25486a22.63427,22.63427 0 0 0 22.5722,22.5722l32.27555,0a22.63427,22.63427 0 0 0 22.5722,-22.5722l0,-32.25486a22.63427,22.63427 0 0 0 -22.5722,-22.63427l0,0.04138z" fill="#e53c5f" id="svg_49" stroke="null"/>
   <path d="m238.00629,153.37214a4.84133,4.84133 0 1 1 4.84133,-4.84133a4.82064,4.82064 0 0 1 -4.84133,4.84133zm-20.95843,3.22755a12.91022,12.91022 0 1 1 -12.91022,12.88954a12.91022,12.91022 0 0 1 12.91022,-12.88954m0,-6.45511a19.36533,19.36533 0 1 0 19.36534,19.34465a19.34464,19.34464 0 0 0 -19.36534,-19.34465z" fill="#e53c5f" id="svg_50" stroke="null"/>
  </g>
  <path fill="#7f7f7f" stroke-width="null" stroke-opacity="null" d="m340.97341,179.31117c1.83143,-0.84811 3.58299,-1.82588 5.12599,-2.70358l-46.23372,-0.40274l-6.34168,3.46836l-20.09056,-0.29789c2.51738,-1.5791 5.27506,-3.43412 7.31965,-4.82743l-7.27296,-4.684l21.43618,0l4.36158,2.9266l47.2035,0l-5.85523,-2.92005c1.80701,-0.92022 4.48127,-2.14826 5.93196,-2.79215l15.87532,7.44227l-15.91143,7.55772l-5.54861,-2.76711l0.00001,0z" id="svg_225" stroke="null"/>
  <text filter="url(#svg_45_blur)" xml:space="preserve" text-anchor="start" font-family="'Trebuchet MS', Gadget, sans-serif" font-size="24" id="svg_45" y="124" x="260.290001" stroke-width="0" fill="#007fff">TweetGram</text>
 </g>
</svg>